<svg id="Layer_1" data-name="Layer 1" xmlns="http://www.w3.org/2000/svg" viewBox="0 0 579 392"><title>chart</title><rect x="32.41" y="-0.47" width="5.98" height="392.7" style="fill:#363636"/><circle cx="35.4" cy="102.67" r="8.46" style="fill:#363636"/><circle cx="35.4" cy="102.67" r="4.49" style="fill:#39b54a"/><path d="M112,110.07l-1.41-3.24h-7l-1.39,3.24h-1.92l5.93-13.34h1.9L114,110.07Zm-7.72-4.9h5.6L107,98.69Z" style="fill:#fff"/><path d="M124.15,100v10.08h-1.79v-2.13a3.79,3.79,0,0,1-3.74,2.19,3.6,3.6,0,0,1-2.75-1,4,4,0,0,1-1-2.87V100h1.79v5.76a2.71,2.71,0,0,0,.7,2,2.57,2.57,0,0,0,1.92.71,2.82,2.82,0,0,0,2.24-1,3.76,3.76,0,0,0,.83-2.51v-5Z" style="fill:#fff"/><path d="M127.7,95.92h1.77v14.15H127.7Z" style="fill:#fff"/><path d="M139.19,110.07v-1.41a4.13,4.13,0,0,1-3.52,1.49,4,4,0,0,1-1.84-.4,2.94,2.94,0,0,1-1.65-2.69,2.57,2.57,0,0,1,1-2.14,4.45,4.45,0,0,1,2.79-.81h3.21v-.48a2.09,2.09,0,0,0-.66-1.65,2.81,2.81,0,0,0-1.92-.58,5.52,5.52,0,0,0-3.11,1.08l-.74-1.22a9.07,9.07,0,0,1,2-1,6.87,6.87,0,0,1,2.2-.31,4.26,4.26,0,0,1,2.92.92,3.34,3.34,0,0,1,1.05,2.59l0,6.63Zm-1.05-2a2.42,2.42,0,0,0,1-1.59v-1h-3a3.44,3.44,0,0,0-1.78.36,1.24,1.24,0,0,0-.59,1.14,1.46,1.46,0,0,0,.6,1.24,2.48,2.48,0,0,0,1.58.46A3.64,3.64,0,0,0,138.14,108.08Z" style="fill:#fff"/><path d="M147.49,96.73h4.86v13.34h-1.83V98.38h-3Z" style="fill:#fff"/><path d="M160.61,103.65h4.56v1.28h-4.56Z" style="fill:#fff"/><path d="M182.3,97.91a4.15,4.15,0,0,1,1.36,3.32,4.4,4.4,0,0,1-1.37,3.46,5.58,5.58,0,0,1-3.85,1.23h-3.32v4.15h-1.83V96.73h5.15A5.71,5.71,0,0,1,182.3,97.91ZM181,103.5a2.71,2.71,0,0,0,.92-2.22,2.61,2.61,0,0,0-.92-2.16,4.1,4.1,0,0,0-2.63-.74l-3.24,0v5.86h3.24A4,4,0,0,0,181,103.5Z" style="fill:#fff"/><path d="M192.07,110.07v-1.41a4.13,4.13,0,0,1-3.52,1.49,4,4,0,0,1-1.85-.4,3.05,3.05,0,0,1-1.22-1.11,3,3,0,0,1-.42-1.58,2.57,2.57,0,0,1,1-2.14,4.41,4.41,0,0,1,2.79-.81h3.2v-.48a2.12,2.12,0,0,0-.65-1.65,2.81,2.81,0,0,0-1.92-.58,5.52,5.52,0,0,0-3.11,1.08l-.74-1.22a9.07,9.07,0,0,1,2-1,6.87,6.87,0,0,1,2.2-.31,4.26,4.26,0,0,1,2.92.92,3.34,3.34,0,0,1,1.05,2.59l0,6.63Zm-1-2a2.37,2.37,0,0,0,1-1.59v-1h-3a3.5,3.5,0,0,0-1.79.36,1.26,1.26,0,0,0-.58,1.14,1.48,1.48,0,0,0,.59,1.24,2.52,2.52,0,0,0,1.59.46A3.64,3.64,0,0,0,191,108.08Z" style="fill:#fff"/><path d="M200.18,100.51a4.2,4.2,0,0,1,2.17-.58v1.72a3.23,3.23,0,0,0-3.58,3.1v5.32H197V100h1.78v2.17A3.7,3.7,0,0,1,200.18,100.51Z" style="fill:#fff"/><path d="M209.69,109.41a4.36,4.36,0,0,1-2.36.74,2.73,2.73,0,0,1-2-.71,2.91,2.91,0,0,1-.74-2.17v-5.59h-1.43v-1.35h1.43V97.62h1.79v2.71h3.09v1.35h-3.09V107a1.82,1.82,0,0,0,.31,1.2,1.13,1.13,0,0,0,.91.36,3.18,3.18,0,0,0,1.57-.48Z" style="fill:#fff"/><path d="M219.3,101.31a5.66,5.66,0,0,1,1.21,3.84c0,.26,0,.45,0,.58h-8a3.31,3.31,0,0,0,3.41,3,4.4,4.4,0,0,0,1.67-.32,4,4,0,0,0,1.34-.92l1,1a4.92,4.92,0,0,1-1.79,1.24,5.82,5.82,0,0,1-2.32.44,5.33,5.33,0,0,1-2.65-.64,4.43,4.43,0,0,1-1.79-1.8,5.79,5.79,0,0,1,0-5.29,4.65,4.65,0,0,1,1.79-1.81,5.11,5.11,0,0,1,2.61-.66A4.44,4.44,0,0,1,219.3,101.31Zm-.4,3a2.91,2.91,0,0,0-3.12-2.95,3.2,3.2,0,0,0-2.23.8,3.32,3.32,0,0,0-1.05,2.15Z" style="fill:#fff"/><path d="M226.3,96.73h4.87v13.34h-1.84V98.38h-3Z" style="fill:#fff"/><path d="M72.2,93.69a9,9,0,1,0,9,9A9,9,0,0,0,72.2,93.69Zm-2.62,13.47v-9l6.73,4.49Z" style="fill:#aaa"/><path d="M85.66,89.21H58.74a3,3,0,0,0-3,3v20.94a3,3,0,0,0,3,3H85.66a3,3,0,0,0,3-3V92.2A3,3,0,0,0,85.66,89.21ZM58.74,113.14V92.2H85.66v20.94Z" style="fill:#aaa"/><path d="M505.12,97.86a2.7,2.7,0,0,1,.95,2.15,3.38,3.38,0,0,1-.56,1.92,3.72,3.72,0,0,1-1.6,1.3,5.84,5.84,0,0,1-2.42.47,7.73,7.73,0,0,1-2.31-.36,6.55,6.55,0,0,1-1.95-.94l.87-1.71a5.49,5.49,0,0,0,1.54.88,5,5,0,0,0,1.71.3,3.13,3.13,0,0,0,1.88-.49,1.56,1.56,0,0,0,.68-1.34,1.46,1.46,0,0,0-.67-1.3,3.38,3.38,0,0,0-1.93-.46h-1.74V97l3.09-3h-4.85l0-1.88h7.7v1.37L502,96.82l.61.07A4.29,4.29,0,0,1,505.12,97.86Z" style="fill:#aaa"/><path d="M522,95.63a3.47,3.47,0,0,1,.86,2.47v5.5h-2.16V98.73a2,2,0,0,0-.52-1.47,1.85,1.85,0,0,0-1.41-.54,2.11,2.11,0,0,0-1.62.74,2.67,2.67,0,0,0-.6,1.79v4.35h-2.15V98.73a2,2,0,0,0-.51-1.47,1.84,1.84,0,0,0-1.4-.54,2.14,2.14,0,0,0-1.64.74,2.67,2.67,0,0,0-.6,1.79v4.35h-2.14V94.8h2.14v1.62a3.26,3.26,0,0,1,3.09-1.71,3.34,3.34,0,0,1,1.94.55,2.91,2.91,0,0,1,1.09,1.56,3.28,3.28,0,0,1,3.28-2.11A3.07,3.07,0,0,1,522,95.63Z" style="fill:#aaa"/><path d="M528,92.08h4.62V103.6H530.4V94H528Z" style="fill:#aaa"/><path d="M543.6,99v1.89h-1.66v2.72h-2v-2.72h-5.51V99.25l3.75-7.17h2.12L536.74,99h3.16V96.33h2V99Z" style="fill:#aaa"/><path d="M549.35,96.59a4.26,4.26,0,0,0-1.26-.21,1.75,1.75,0,0,0-.86.18.66.66,0,0,0-.32.59.69.69,0,0,0,.4.63,6.21,6.21,0,0,0,1.28.47,13,13,0,0,1,1.51.55,2.77,2.77,0,0,1,1,.81,2.14,2.14,0,0,1,.43,1.41,2.25,2.25,0,0,1-1,2,4.25,4.25,0,0,1-2.49.69,6.42,6.42,0,0,1-2-.32,4.65,4.65,0,0,1-1.64-.91l.74-1.5a4.22,4.22,0,0,0,1.41.8,4.81,4.81,0,0,0,1.57.29,1.82,1.82,0,0,0,.94-.21.67.67,0,0,0,.36-.62.76.76,0,0,0-.42-.69,7.46,7.46,0,0,0-1.33-.51,11.07,11.07,0,0,1-1.45-.52,2.63,2.63,0,0,1-1-.77,2.16,2.16,0,0,1-.41-1.36,2.29,2.29,0,0,1,1-2,3.91,3.91,0,0,1,2.37-.68,6.21,6.21,0,0,1,1.72.24,5.66,5.66,0,0,1,1.51.69l-.77,1.55A6.28,6.28,0,0,0,549.35,96.59Z" style="fill:#aaa"/><rect x="463.8" y="111.24" width="88.25" height="4.49" rx="2.24" style="fill:#363636"/><rect x="463.8" y="111.24" width="44.42" height="4.49" rx="2.24" style="fill:#13aee5"/><circle cx="35.4" cy="277.32" r="8.46" style="fill:#363636"/><circle cx="35.4" cy="277.32" r="4.49" style="fill:#1a1a1a"/><path d="M112,284.73l-1.41-3.24h-7l-1.39,3.24h-1.92l5.93-13.35h1.9L114,284.73Zm-7.72-4.9h5.6L107,273.34Z" style="fill:#fff"/><path d="M124.15,274.64v10.09h-1.79v-2.14a3.79,3.79,0,0,1-3.74,2.19,3.63,3.63,0,0,1-2.75-1,4,4,0,0,1-1-2.87v-6.24h1.79v5.76a2.71,2.71,0,0,0,.7,2,2.53,2.53,0,0,0,1.92.72,2.86,2.86,0,0,0,2.24-1,3.75,3.75,0,0,0,.83-2.5v-5Z" style="fill:#fff"/><path d="M127.7,270.58h1.77v14.15H127.7Z" style="fill:#fff"/><path d="M139.19,284.73v-1.41a4.12,4.12,0,0,1-3.52,1.48,4,4,0,0,1-1.84-.4,2.84,2.84,0,0,1-1.22-1.1,3,3,0,0,1-.43-1.59,2.58,2.58,0,0,1,1-2.14,4.45,4.45,0,0,1,2.79-.81h3.21v-.48a2.09,2.09,0,0,0-.66-1.65,2.81,2.81,0,0,0-1.92-.58,5.46,5.46,0,0,0-3.11,1.09l-.74-1.22a9.07,9.07,0,0,1,2-1,6.85,6.85,0,0,1,2.2-.32,4.21,4.21,0,0,1,2.92.93,3.31,3.31,0,0,1,1.05,2.58l0,6.64Zm-1.05-2a2.42,2.42,0,0,0,1-1.59v-1h-3a3.44,3.44,0,0,0-1.78.36,1.27,1.27,0,0,0-.59,1.15,1.49,1.49,0,0,0,.6,1.24,2.53,2.53,0,0,0,1.58.45A3.64,3.64,0,0,0,138.14,282.73Z" style="fill:#fff"/><path d="M147.49,271.38h4.86v13.35h-1.83V273h-3Z" style="fill:#fff"/><path d="M160.61,278.3h4.56v1.28h-4.56Z" style="fill:#fff"/><path d="M182.3,272.56a4.16,4.16,0,0,1,1.36,3.32,4.38,4.38,0,0,1-1.37,3.46,5.58,5.58,0,0,1-3.85,1.23h-3.32v4.16h-1.83V271.38h5.15A5.71,5.71,0,0,1,182.3,272.56Zm-1.31,5.6a2.71,2.71,0,0,0,.92-2.22,2.62,2.62,0,0,0-.92-2.17,4.1,4.1,0,0,0-2.63-.73l-3.24,0v5.85h3.24A4,4,0,0,0,181,278.16Z" style="fill:#fff"/><path d="M192.07,284.73v-1.41a4.12,4.12,0,0,1-3.52,1.48,4,4,0,0,1-1.85-.4,3,3,0,0,1-1.22-1.1,3,3,0,0,1-.42-1.59,2.58,2.58,0,0,1,1-2.14,4.41,4.41,0,0,1,2.79-.81h3.2v-.48a2.12,2.12,0,0,0-.65-1.65,2.81,2.81,0,0,0-1.92-.58,5.46,5.46,0,0,0-3.11,1.09l-.74-1.22a9.07,9.07,0,0,1,2-1,6.85,6.85,0,0,1,2.2-.32,4.21,4.21,0,0,1,2.92.93,3.31,3.31,0,0,1,1.05,2.58l0,6.64Zm-1-2a2.37,2.37,0,0,0,1-1.59v-1h-3a3.5,3.5,0,0,0-1.79.36,1.28,1.28,0,0,0-.58,1.15,1.5,1.5,0,0,0,.59,1.24,2.59,2.59,0,0,0,1.59.45A3.64,3.64,0,0,0,191,282.73Z" style="fill:#fff"/><path d="M200.18,275.16a4.2,4.2,0,0,1,2.17-.58v1.72a3.4,3.4,0,0,0-2.5.8,3.37,3.37,0,0,0-1.08,2.31v5.32H197V274.64h1.78v2.17A3.7,3.7,0,0,1,200.18,275.16Z" style="fill:#fff"/><path d="M209.69,284.06a4.28,4.28,0,0,1-2.36.74,2.73,2.73,0,0,1-2-.71,2.91,2.91,0,0,1-.74-2.17v-5.58h-1.43V275h1.43v-2.71h1.79V275h3.09v1.36h-3.09v5.26a1.82,1.82,0,0,0,.31,1.2,1.13,1.13,0,0,0,.91.36,3.27,3.27,0,0,0,1.57-.47Z" style="fill:#fff"/><path d="M219.3,276a5.71,5.71,0,0,1,1.21,3.85c0,.25,0,.44,0,.57h-8a3.31,3.31,0,0,0,3.41,2.95,4.21,4.21,0,0,0,1.67-.32,4.13,4.13,0,0,0,1.34-.91l1,1a5.18,5.18,0,0,1-1.79,1.24,6,6,0,0,1-2.32.43,5.44,5.44,0,0,1-2.65-.63,4.52,4.52,0,0,1-1.79-1.81,5.79,5.79,0,0,1,0-5.29,4.65,4.65,0,0,1,1.79-1.81,5.11,5.11,0,0,1,2.61-.66A4.44,4.44,0,0,1,219.3,276Zm-.4,3.05a2.91,2.91,0,0,0-3.12-3,3.24,3.24,0,0,0-2.23.8A3.35,3.35,0,0,0,212.5,279Z" style="fill:#fff"/><path d="M236.56,283.07v1.66h-9.65v-1.41l5.17-5.36a9.25,9.25,0,0,0,1.34-1.67,2.9,2.9,0,0,0,.49-1.44,1.66,1.66,0,0,0-.69-1.41,3.15,3.15,0,0,0-1.92-.52,5.14,5.14,0,0,0-2,.43,6.62,6.62,0,0,0-1.83,1.19l-.78-1.39a9,9,0,0,1,2.32-1.36,6.55,6.55,0,0,1,2.47-.49,5,5,0,0,1,3.12.9,2.88,2.88,0,0,1,1.17,2.4q0,1.77-2.48,4.35l-4,4.12Z" style="fill:#fff"/><path d="M72.2,268.35a9,9,0,1,0,9,9A9,9,0,0,0,72.2,268.35Zm-2.62,13.46v-9l6.73,4.49Z" style="fill:#aaa"/><path d="M85.66,263.86H58.74a3,3,0,0,0-3,3v20.94a3,3,0,0,0,3,3H85.66a3,3,0,0,0,3-3V266.85A3,3,0,0,0,85.66,263.86ZM58.74,287.79V266.85H85.66v20.94Z" style="fill:#aaa"/><path d="M502.7,273.64v1.9H501v2.71h-2v-2.71h-5.51v-1.63l3.75-7.18h2.13l-3.53,6.91H499V271h2v2.66Z" style="fill:#aaa"/><path d="M518.44,270.28a3.48,3.48,0,0,1,.86,2.48v5.49h-2.16v-4.87a2,2,0,0,0-.52-1.47,1.84,1.84,0,0,0-1.4-.54,2.14,2.14,0,0,0-1.62.74,2.7,2.7,0,0,0-.6,1.8v4.34h-2.16v-4.87a2,2,0,0,0-.51-1.47,1.84,1.84,0,0,0-1.4-.54,2.17,2.17,0,0,0-1.64.74,2.7,2.7,0,0,0-.6,1.8v4.34h-2.13v-8.8h2.13v1.63a3.66,3.66,0,0,1,5-1.16,2.84,2.84,0,0,1,1.09,1.55,3.26,3.26,0,0,1,3.28-2.1A3.05,3.05,0,0,1,518.44,270.28Z" style="fill:#aaa"/><path d="M533.73,273.64v1.9h-1.66v2.71h-2v-2.71h-5.52v-1.63l3.76-7.18h2.12l-3.52,6.91H530V271h2v2.66Z" style="fill:#aaa"/><path d="M543.6,273.64v1.9h-1.66v2.71h-2v-2.71h-5.51v-1.63l3.75-7.18h2.12l-3.52,6.91h3.16V271h2v2.66Z" style="fill:#aaa"/><path d="M549.35,271.24a4.26,4.26,0,0,0-1.26-.21,1.64,1.64,0,0,0-.86.19.63.63,0,0,0-.32.58.67.67,0,0,0,.4.63,6.21,6.21,0,0,0,1.28.47,11.21,11.21,0,0,1,1.51.56,2.74,2.74,0,0,1,1,.8,2.18,2.18,0,0,1,.43,1.41,2.25,2.25,0,0,1-1,2,4.25,4.25,0,0,1-2.49.69,6.14,6.14,0,0,1-2-.32,4.65,4.65,0,0,1-1.64-.91l.74-1.5a4.22,4.22,0,0,0,1.41.8,4.81,4.81,0,0,0,1.57.29,1.82,1.82,0,0,0,.94-.21.65.65,0,0,0,.36-.61.76.76,0,0,0-.42-.7,7.46,7.46,0,0,0-1.33-.51,11.21,11.21,0,0,1-1.45-.51,2.66,2.66,0,0,1-1-.78,2.14,2.14,0,0,1-.41-1.36,2.31,2.31,0,0,1,1-2,4,4,0,0,1,2.37-.68,5.87,5.87,0,0,1,1.72.25,5.1,5.1,0,0,1,1.51.69l-.77,1.54A6.28,6.28,0,0,0,549.35,271.24Z" style="fill:#aaa"/><rect x="463.8" y="285.89" width="88.25" height="4.49" rx="2.24" style="fill:#363636"/><rect x="463.8" y="285.89" width="44.42" height="4.49" rx="2.24" style="fill:#363636"/><circle cx="35.4" cy="47.99" r="8.46" style="fill:#363636"/><circle cx="35.4" cy="47.99" r="4.49" style="fill:#39b54a"/><path d="M100.35,42.8h10.43v1.68h-4.31V56.15h-1.83V44.48h-4.29Z" style="fill:#fff"/><path d="M118.92,47.39a5.66,5.66,0,0,1,1.2,3.84c0,.25,0,.44,0,.57h-8A3.46,3.46,0,0,0,113.27,54a3.39,3.39,0,0,0,2.28.8,4.22,4.22,0,0,0,1.67-.33,4,4,0,0,0,1.34-.91l1,1a5,5,0,0,1-1.79,1.24,6,6,0,0,1-2.33.44,5.43,5.43,0,0,1-2.64-.64,4.56,4.56,0,0,1-1.79-1.8,5.81,5.81,0,0,1,0-5.3,4.69,4.69,0,0,1,1.78-1.81,5.18,5.18,0,0,1,2.62-.66A4.44,4.44,0,0,1,118.92,47.39Zm-.4,3a3.08,3.08,0,0,0-.91-2.17,3.13,3.13,0,0,0-2.21-.79,3.24,3.24,0,0,0-2.23.8,3.37,3.37,0,0,0-1,2.16Z" style="fill:#fff"/><path d="M126.68,47.68a5.14,5.14,0,0,0-1.45-.23,2.4,2.4,0,0,0-1.28.3,1,1,0,0,0-.49.91,1,1,0,0,0,.55.92,8.09,8.09,0,0,0,1.64.64,12.66,12.66,0,0,1,1.72.61,3,3,0,0,1,1.14.9,2.43,2.43,0,0,1,.46,1.56,2.48,2.48,0,0,1-1.07,2.17,4.6,4.6,0,0,1-2.68.75,6.54,6.54,0,0,1-2.19-.37,4.88,4.88,0,0,1-1.78-1l.67-1.29a4.71,4.71,0,0,0,1.55.91,5.17,5.17,0,0,0,1.8.35,2.63,2.63,0,0,0,1.41-.33,1.06,1.06,0,0,0,.54-1,1.13,1.13,0,0,0-.56-1,7.83,7.83,0,0,0-1.71-.69,11,11,0,0,1-1.65-.58,2.77,2.77,0,0,1-1.09-.87,2.31,2.31,0,0,1-.45-1.48,2.42,2.42,0,0,1,1-2.12,4.48,4.48,0,0,1,2.58-.7,6.46,6.46,0,0,1,1.8.25,5.59,5.59,0,0,1,1.54.7l-.65,1.35A6.15,6.15,0,0,0,126.68,47.68Z" style="fill:#fff"/><path d="M136.73,55.48a4.29,4.29,0,0,1-2.36.75,2.7,2.7,0,0,1-2-.72,2.9,2.9,0,0,1-.74-2.16V47.76h-1.43V46.4h1.43V43.7h1.79v2.7h3.09v1.36h-3.09V53a1.82,1.82,0,0,0,.31,1.2,1.13,1.13,0,0,0,.91.37,3.18,3.18,0,0,0,1.57-.48Z" style="fill:#fff"/><path d="M146.35,47.39a5.66,5.66,0,0,1,1.2,3.84c0,.25,0,.44,0,.57h-8A3.45,3.45,0,0,0,140.69,54a3.39,3.39,0,0,0,2.28.8,4.22,4.22,0,0,0,1.67-.33,4,4,0,0,0,1.34-.91l1,1a5.18,5.18,0,0,1-1.8,1.24,6,6,0,0,1-2.32.44,5.44,5.44,0,0,1-2.65-.64,4.62,4.62,0,0,1-1.79-1.8,5.5,5.5,0,0,1-.64-2.65,5.44,5.44,0,0,1,.64-2.65,4.65,4.65,0,0,1,1.79-1.81A5.11,5.11,0,0,1,142.8,46,4.48,4.48,0,0,1,146.35,47.39Zm-.41,3a3.08,3.08,0,0,0-.91-2.17,3.13,3.13,0,0,0-2.21-.79,3.2,3.2,0,0,0-2.22.8,3.33,3.33,0,0,0-1.06,2.16Z" style="fill:#fff"/><path d="M164.37,42V56.15h-1.78v-2a4,4,0,0,1-1.53,1.55,4.53,4.53,0,0,1-2.24.54,4.79,4.79,0,0,1-2.53-.65,4.57,4.57,0,0,1-1.71-1.83,5.84,5.84,0,0,1-.61-2.68,5.65,5.65,0,0,1,.61-2.64,4.59,4.59,0,0,1,1.71-1.81A4.86,4.86,0,0,1,158.8,46a4.62,4.62,0,0,1,2.27.53,3.82,3.82,0,0,1,1.52,1.54V42Zm-3.43,12.26A3.11,3.11,0,0,0,162.15,53a3.75,3.75,0,0,0,.44-1.85,3.79,3.79,0,0,0-.44-1.86A3.11,3.11,0,0,0,160.94,48a3.33,3.33,0,0,0-1.76-.46,3.28,3.28,0,0,0-3,1.75,3.91,3.91,0,0,0-.43,1.85A3.86,3.86,0,0,0,156.2,53a3.25,3.25,0,0,0,1.21,1.28,3.39,3.39,0,0,0,1.77.46A3.33,3.33,0,0,0,160.94,54.26Z" style="fill:#fff"/><path d="M175.52,47.39a5.66,5.66,0,0,1,1.2,3.84,4.38,4.38,0,0,1,0,.57h-8A3.46,3.46,0,0,0,169.87,54a3.36,3.36,0,0,0,2.28.8,4.17,4.17,0,0,0,1.66-.33,3.93,3.93,0,0,0,1.35-.91l1,1a5,5,0,0,1-1.79,1.24,6,6,0,0,1-2.33.44,5.43,5.43,0,0,1-2.64-.64,4.56,4.56,0,0,1-1.79-1.8,5.81,5.81,0,0,1,0-5.3,4.69,4.69,0,0,1,1.78-1.81A5.18,5.18,0,0,1,172,46,4.44,4.44,0,0,1,175.52,47.39Zm-.4,3a3.08,3.08,0,0,0-.91-2.17,3.14,3.14,0,0,0-2.22-.79,3.2,3.2,0,0,0-2.22.8,3.43,3.43,0,0,0-1.06,2.16Z" style="fill:#fff"/><path d="M192.53,47a3.93,3.93,0,0,1,1,2.87v6.24h-1.77V50.39a2.67,2.67,0,0,0-.72-2,2.64,2.64,0,0,0-2-.72,3,3,0,0,0-2.2.87,3.42,3.42,0,0,0-1,2.2v5.4h-1.77V46.06h1.77V48.2a3.92,3.92,0,0,1,3.84-2.2A3.7,3.7,0,0,1,192.53,47Z" style="fill:#fff"/><path d="M198.38,42.36a1.13,1.13,0,0,1,.31.82,1.12,1.12,0,0,1-.31.82,1.12,1.12,0,0,1-1.59,0,1.12,1.12,0,0,1-.31-.82,1.13,1.13,0,0,1,.31-.82,1.15,1.15,0,0,1,1.59,0Zm-1.67,3.7h1.77V56.15h-1.77Z" style="fill:#fff"/><path d="M200.25,46.06h1.89l3,8.34,3-8.34H210l-3.93,10.09H204.2Z" style="fill:#fff"/><path d="M218.9,47.39a5.61,5.61,0,0,1,1.21,3.84c0,.25,0,.44,0,.57h-8A3.45,3.45,0,0,0,213.25,54a3.39,3.39,0,0,0,2.28.8,4.22,4.22,0,0,0,1.67-.33,4,4,0,0,0,1.34-.91l1,1a5.18,5.18,0,0,1-1.8,1.24,6,6,0,0,1-2.32.44,5.44,5.44,0,0,1-2.65-.64,4.56,4.56,0,0,1-1.79-1.8,5.5,5.5,0,0,1-.64-2.65,5.44,5.44,0,0,1,.64-2.65,4.65,4.65,0,0,1,1.79-1.81,5.11,5.11,0,0,1,2.61-.66A4.44,4.44,0,0,1,218.9,47.39Zm-.4,3a3.08,3.08,0,0,0-.91-2.17,3.13,3.13,0,0,0-2.21-.79,3.24,3.24,0,0,0-2.23.8,3.37,3.37,0,0,0-1.05,2.16Z" style="fill:#fff"/><path d="M222.62,42h1.78V56.15h-1.78Z" style="fill:#fff"/><path d="M234.12,56.15V54.74a4.76,4.76,0,0,1-5.37,1.09,2.94,2.94,0,0,1-1.65-2.69,2.61,2.61,0,0,1,1-2.15,4.46,4.46,0,0,1,2.8-.81h3.2V49.7a2.09,2.09,0,0,0-.66-1.65,2.81,2.81,0,0,0-1.91-.58,5.46,5.46,0,0,0-3.11,1.09l-.74-1.22a9.07,9.07,0,0,1,2-1,6.81,6.81,0,0,1,2.2-.32,4.21,4.21,0,0,1,2.92.93,3.4,3.4,0,0,1,1.05,2.58l0,6.64Zm-1.06-2a2.34,2.34,0,0,0,1-1.6v-1h-2.95a3.39,3.39,0,0,0-1.79.37,1.26,1.26,0,0,0-.58,1.14,1.5,1.5,0,0,0,.59,1.24,2.59,2.59,0,0,0,1.59.46A3.61,3.61,0,0,0,233.06,54.16Z" style="fill:#fff"/><path d="M254.79,47.05a4,4,0,0,1,1,2.86v6.24H254V50.39a2.78,2.78,0,0,0-.69-2,2.57,2.57,0,0,0-1.92-.73,3,3,0,0,0-2.25,1,3.75,3.75,0,0,0-.82,2.5v5h-1.79V50.39a2.78,2.78,0,0,0-.69-2,2.55,2.55,0,0,0-1.93-.73,3,3,0,0,0-2.26,1,3.75,3.75,0,0,0-.83,2.5v5H239V46.06h1.77v2.12A3.83,3.83,0,0,1,244.57,46a3.91,3.91,0,0,1,2.32.67,3.3,3.3,0,0,1,1.25,1.87A3.84,3.84,0,0,1,252.07,46,3.56,3.56,0,0,1,254.79,47.05Z" style="fill:#fff"/><path d="M266.54,47.39a5.66,5.66,0,0,1,1.2,3.84c0,.25,0,.44,0,.57h-8A3.46,3.46,0,0,0,260.89,54a3.35,3.35,0,0,0,2.27.8,4.18,4.18,0,0,0,1.67-.33,3.93,3.93,0,0,0,1.35-.91l1,1a5.14,5.14,0,0,1-1.79,1.24,6,6,0,0,1-2.33.44,5.43,5.43,0,0,1-2.64-.64,4.49,4.49,0,0,1-1.79-1.8,5.81,5.81,0,0,1,0-5.3,4.62,4.62,0,0,1,1.78-1.81A5.11,5.11,0,0,1,263,46,4.45,4.45,0,0,1,266.54,47.39Zm-.4,3a2.93,2.93,0,0,0-3.13-3,3.2,3.2,0,0,0-2.22.8,3.43,3.43,0,0,0-1.06,2.16Z" style="fill:#fff"/><path d="M278.55,47a3.93,3.93,0,0,1,1,2.87v6.24h-1.77V50.39a2.7,2.7,0,0,0-.71-2,2.68,2.68,0,0,0-2-.72,3,3,0,0,0-2.2.87,3.36,3.36,0,0,0-1,2.2v5.4h-1.78V46.06h1.78V48.2a3.89,3.89,0,0,1,3.83-2.2A3.7,3.7,0,0,1,278.55,47Z" style="fill:#fff"/><path d="M288.15,55.48a4.35,4.35,0,0,1-2.37.75,2.66,2.66,0,0,1-1.94-.72,2.86,2.86,0,0,1-.75-2.16V47.76h-1.43V46.4h1.43V43.7h1.8v2.7H288v1.36h-3.08V53a1.88,1.88,0,0,0,.3,1.2,1.13,1.13,0,0,0,.91.37,3.18,3.18,0,0,0,1.57-.48Z" style="fill:#fff"/><path d="M297,46.65a4.73,4.73,0,0,1,1.83,1.8,5.24,5.24,0,0,1,.66,2.65,5.29,5.29,0,0,1-.66,2.65A4.68,4.68,0,0,1,297,55.56a5.45,5.45,0,0,1-2.68.65,5.56,5.56,0,0,1-2.7-.65,4.66,4.66,0,0,1-1.83-1.8,5.75,5.75,0,0,1,0-5.31,4.73,4.73,0,0,1,1.83-1.8,5.56,5.56,0,0,1,2.7-.65A5.45,5.45,0,0,1,297,46.65ZM292.6,48a3,3,0,0,0-1.2,1.26,4.22,4.22,0,0,0,0,3.71,3,3,0,0,0,1.2,1.27,3.65,3.65,0,0,0,3.51,0,3.13,3.13,0,0,0,1.2-1.27,4.22,4.22,0,0,0,0-3.71,3.17,3.17,0,0,0-1.2-1.26,3.58,3.58,0,0,0-3.51,0Z" style="fill:#fff"/><polygon points="70.7 51.86 68.77 49.92 66.66 52.04 70.7 56.09 77.75 49.05 75.63 46.93 70.7 51.86" style="fill:#aaa"/><path d="M82.67,36h-3V33H78a6,6,0,0,0-11.54,0H64.72v3h-3a3,3,0,0,0-3,3V60a3,3,0,0,0,3,3H82.67a3,3,0,0,0,3-3V39A3,3,0,0,0,82.67,36ZM72.2,31.53A3,3,0,0,1,74.79,33H69.61A3,3,0,0,1,72.2,31.53ZM67.71,36h9v3h-9ZM82.67,60H61.73V39h3v3h15V39h3Z" style="fill:#aaa"/><path d="M522.35,37.35a9.6,9.6,0,0,1,1.51,5.79,9.52,9.52,0,0,1-1.51,5.76,5.65,5.65,0,0,1-8.64,0,9.45,9.45,0,0,1-1.51-5.76,9.53,9.53,0,0,1,1.51-5.79,5.65,5.65,0,0,1,8.64,0ZM515.65,39a8.44,8.44,0,0,0-.78,4.15,8.48,8.48,0,0,0,.78,4.14,2.79,2.79,0,0,0,4.76,0,8.49,8.49,0,0,0,.77-4.14,8.46,8.46,0,0,0-.77-4.15,2.79,2.79,0,0,0-4.76,0Z" style="fill:#aaa"/><path d="M531.78,36.64a5.23,5.23,0,0,1,1,3.36,5.34,5.34,0,0,1-1,3.39,3.48,3.48,0,0,1-5.33,0,5.4,5.4,0,0,1-1-3.39,5.32,5.32,0,0,1,1-3.35,3.2,3.2,0,0,1,2.66-1.22A3.23,3.23,0,0,1,531.78,36.64Zm-4.12,1.22a3.83,3.83,0,0,0-.51,2.14,3.93,3.93,0,0,0,.51,2.18,1.65,1.65,0,0,0,1.45.78,1.67,1.67,0,0,0,1.47-.78A3.84,3.84,0,0,0,531.1,40a3.74,3.74,0,0,0-.52-2.14,1.69,1.69,0,0,0-1.47-.77A1.67,1.67,0,0,0,527.66,37.86Zm10.51-2.39h1.92l-9.88,15.34h-1.94Zm3.89,7.42a5.23,5.23,0,0,1,1,3.36,5.31,5.31,0,0,1-1,3.38,3.47,3.47,0,0,1-5.32,0,5.31,5.31,0,0,1-1-3.38,5.22,5.22,0,0,1,1-3.35,3.5,3.5,0,0,1,5.32,0ZM538,44.1a3.86,3.86,0,0,0-.51,2.15,4,4,0,0,0,.51,2.18,1.62,1.62,0,0,0,1.44.78,1.66,1.66,0,0,0,1.47-.78,3.88,3.88,0,0,0,.53-2.18,3.77,3.77,0,0,0-.53-2.15,1.68,1.68,0,0,0-1.47-.77A1.64,1.64,0,0,0,538,44.1Z" style="fill:#aaa"/><rect x="463.8" y="31" width="8.69" height="8.69" rx="1.02" style="fill:red"/><rect x="475.02" y="31" width="8.69" height="8.69" rx="1.02" style="fill:red"/><rect x="486.23" y="31" width="8.69" height="8.69" rx="1.02" style="fill:red"/><rect x="463.8" y="41.19" width="8.69" height="8.69" rx="1.02" style="fill:#363636"/><rect x="475.02" y="41.19" width="8.69" height="8.69" rx="1.02" style="fill:#363636"/><rect x="486.23" y="41.19" width="8.69" height="8.69" rx="1.02" style="fill:#363636"/><rect x="463.8" y="51.8" width="8.69" height="8.69" rx="1.02" style="fill:#363636"/><rect x="475.02" y="51.8" width="8.69" height="8.69" rx="1.02" style="fill:#363636"/><rect x="486.23" y="51.8" width="8.69" height="8.69" rx="1.02" style="fill:#363636"/><path d="M100.35,217.45h10.43v1.68h-4.31V230.8h-1.83V219.13h-4.29Z" style="fill:#fff"/><path d="M118.92,222a5.66,5.66,0,0,1,1.2,3.84c0,.26,0,.45,0,.57h-8a3.44,3.44,0,0,0,1.14,2.16,3.39,3.39,0,0,0,2.28.8,4.4,4.4,0,0,0,1.67-.32,4.16,4.16,0,0,0,1.34-.92l1,1a5,5,0,0,1-1.79,1.24,6,6,0,0,1-2.33.44,5.32,5.32,0,0,1-2.64-.64,4.56,4.56,0,0,1-1.79-1.8,5.39,5.39,0,0,1-.64-2.65,5.32,5.32,0,0,1,.64-2.64,4.72,4.72,0,0,1,1.78-1.82,5.27,5.27,0,0,1,2.62-.65A4.44,4.44,0,0,1,118.92,222Zm-.4,3a2.91,2.91,0,0,0-3.12-3,3.2,3.2,0,0,0-2.23.8,3.32,3.32,0,0,0-1,2.15Z" style="fill:#fff"/><path d="M126.68,222.33a5.11,5.11,0,0,0-1.45-.22,2.4,2.4,0,0,0-1.28.29,1,1,0,0,0-.49.91,1,1,0,0,0,.55.92,7.54,7.54,0,0,0,1.64.64,12.66,12.66,0,0,1,1.72.61,3.1,3.1,0,0,1,1.14.9,2.43,2.43,0,0,1,.46,1.56,2.5,2.5,0,0,1-1.07,2.18,4.67,4.67,0,0,1-2.68.74,6.79,6.79,0,0,1-2.19-.36,5,5,0,0,1-1.78-1l.67-1.3a4.72,4.72,0,0,0,1.55.92,5.39,5.39,0,0,0,1.8.34,2.63,2.63,0,0,0,1.41-.33,1.06,1.06,0,0,0,.54-1,1.15,1.15,0,0,0-.56-1,7.9,7.9,0,0,0-1.71-.68,10.85,10.85,0,0,1-1.65-.59,2.84,2.84,0,0,1-1.09-.86,2.34,2.34,0,0,1-.45-1.49,2.42,2.42,0,0,1,1-2.12,4.48,4.48,0,0,1,2.58-.7,6.12,6.12,0,0,1,1.8.26,5.58,5.58,0,0,1,1.54.69l-.65,1.35A6.64,6.64,0,0,0,126.68,222.33Z" style="fill:#fff"/><path d="M136.73,230.13a4.29,4.29,0,0,1-2.36.75,2.7,2.7,0,0,1-2-.72,2.88,2.88,0,0,1-.74-2.16v-5.59h-1.43v-1.35h1.43v-2.71h1.79v2.71h3.09v1.35h-3.09v5.26a1.87,1.87,0,0,0,.31,1.21,1.13,1.13,0,0,0,.91.36,3.18,3.18,0,0,0,1.57-.48Z" style="fill:#fff"/><path d="M146.35,222a5.66,5.66,0,0,1,1.2,3.84c0,.26,0,.45,0,.57h-8a3.43,3.43,0,0,0,1.13,2.16,3.39,3.39,0,0,0,2.28.8,4.4,4.4,0,0,0,1.67-.32,4.16,4.16,0,0,0,1.34-.92l1,1a5.18,5.18,0,0,1-1.8,1.24,6,6,0,0,1-2.32.44,5.33,5.33,0,0,1-2.65-.64,4.62,4.62,0,0,1-1.79-1.8,5.5,5.5,0,0,1-.64-2.65,5.43,5.43,0,0,1,.64-2.64,4.67,4.67,0,0,1,1.79-1.82,5.21,5.21,0,0,1,2.61-.65A4.47,4.47,0,0,1,146.35,222Zm-.41,3a2.91,2.91,0,0,0-3.12-3,3.16,3.16,0,0,0-2.22.8,3.29,3.29,0,0,0-1.06,2.15Z" style="fill:#fff"/><path d="M164.37,216.65V230.8h-1.78v-2a4,4,0,0,1-1.53,1.55,4.43,4.43,0,0,1-2.24.55,4.8,4.8,0,0,1-2.53-.66,4.57,4.57,0,0,1-1.71-1.83,5.81,5.81,0,0,1-.61-2.68,5.65,5.65,0,0,1,.61-2.64,4.49,4.49,0,0,1,1.71-1.8,5.15,5.15,0,0,1,4.78-.12,3.78,3.78,0,0,1,1.52,1.55v-6.07Zm-3.43,12.26a3.15,3.15,0,0,0,1.21-1.27,4.15,4.15,0,0,0,0-3.72,3.11,3.11,0,0,0-1.21-1.28,3.33,3.33,0,0,0-1.76-.46,3.39,3.39,0,0,0-1.77.47,3.34,3.34,0,0,0-1.21,1.29,3.86,3.86,0,0,0-.43,1.85,3.91,3.91,0,0,0,.43,1.85,3.29,3.29,0,0,0,1.21,1.27,3.39,3.39,0,0,0,1.77.46A3.33,3.33,0,0,0,160.94,228.91Z" style="fill:#fff"/><path d="M175.52,222a5.66,5.66,0,0,1,1.2,3.84,4.21,4.21,0,0,1,0,.57h-8a3.44,3.44,0,0,0,1.14,2.16,3.36,3.36,0,0,0,2.28.8,4.34,4.34,0,0,0,1.66-.32,4.1,4.1,0,0,0,1.35-.92l1,1a5,5,0,0,1-1.79,1.24,6,6,0,0,1-2.33.44,5.32,5.32,0,0,1-2.64-.64,4.56,4.56,0,0,1-1.79-1.8,5.39,5.39,0,0,1-.64-2.65,5.32,5.32,0,0,1,.64-2.64,4.72,4.72,0,0,1,1.78-1.82,5.27,5.27,0,0,1,2.62-.65A4.44,4.44,0,0,1,175.52,222Zm-.4,3a3.06,3.06,0,0,0-.91-2.16,3.09,3.09,0,0,0-2.22-.79,3.16,3.16,0,0,0-2.22.8,3.38,3.38,0,0,0-1.06,2.15Z" style="fill:#fff"/><path d="M192.53,221.7a3.91,3.91,0,0,1,1,2.87v6.23h-1.77V225a2.68,2.68,0,0,0-.72-2,2.64,2.64,0,0,0-2-.72,3.09,3.09,0,0,0-2.2.87,3.42,3.42,0,0,0-1,2.21v5.39h-1.77V220.71h1.77v2.14a3.9,3.9,0,0,1,3.84-2.19A3.67,3.67,0,0,1,192.53,221.7Z" style="fill:#fff"/><path d="M198.38,217a1.13,1.13,0,0,1,.31.82,1.1,1.1,0,0,1-.31.82,1.12,1.12,0,0,1-1.59,0,1.1,1.1,0,0,1-.31-.82,1.13,1.13,0,0,1,.31-.82,1.15,1.15,0,0,1,1.59,0Zm-1.67,3.7h1.77V230.8h-1.77Z" style="fill:#fff"/><path d="M200.25,220.71h1.89l3,8.34,3-8.34H210l-3.93,10.09H204.2Z" style="fill:#fff"/><path d="M218.9,222a5.61,5.61,0,0,1,1.21,3.84c0,.26,0,.45,0,.57h-8a3.43,3.43,0,0,0,1.13,2.16,3.39,3.39,0,0,0,2.28.8,4.4,4.4,0,0,0,1.67-.32,4.16,4.16,0,0,0,1.34-.92l1,1a5.18,5.18,0,0,1-1.8,1.24,6,6,0,0,1-2.32.44,5.33,5.33,0,0,1-2.65-.64,4.56,4.56,0,0,1-1.79-1.8,5.5,5.5,0,0,1-.64-2.65,5.43,5.43,0,0,1,.64-2.64,4.67,4.67,0,0,1,1.79-1.82,5.21,5.21,0,0,1,2.61-.65A4.44,4.44,0,0,1,218.9,222Zm-.4,3a2.91,2.91,0,0,0-3.12-3,3.2,3.2,0,0,0-2.23.8,3.32,3.32,0,0,0-1.05,2.15Z" style="fill:#fff"/><path d="M222.62,216.65h1.78V230.8h-1.78Z" style="fill:#fff"/><path d="M234.12,230.8v-1.41a4.76,4.76,0,0,1-5.37,1.09,2.94,2.94,0,0,1-1.65-2.69,2.62,2.62,0,0,1,1-2.15,4.59,4.59,0,0,1,2.8-.81h3.2v-.47a2.06,2.06,0,0,0-.66-1.65,2.76,2.76,0,0,0-1.91-.58,5.52,5.52,0,0,0-3.11,1.08l-.74-1.22a9.07,9.07,0,0,1,2-1,6.83,6.83,0,0,1,2.2-.31,4.21,4.21,0,0,1,2.92.92,3.41,3.41,0,0,1,1.05,2.59l0,6.63Zm-1.06-2a2.35,2.35,0,0,0,1-1.59v-1h-2.95a3.5,3.5,0,0,0-1.79.36,1.26,1.26,0,0,0-.58,1.14,1.49,1.49,0,0,0,.59,1.24,2.52,2.52,0,0,0,1.59.46A3.61,3.61,0,0,0,233.06,228.81Z" style="fill:#fff"/><path d="M254.79,221.71a4,4,0,0,1,1,2.86v6.23H254V225a2.78,2.78,0,0,0-.69-2,2.56,2.56,0,0,0-1.92-.72,2.88,2.88,0,0,0-2.25,1,3.7,3.7,0,0,0-.82,2.49v5h-1.79V225a2.78,2.78,0,0,0-.69-2,2.54,2.54,0,0,0-1.93-.72,2.92,2.92,0,0,0-2.26,1,3.71,3.71,0,0,0-.83,2.49v5H239V220.71h1.77v2.12a3.82,3.82,0,0,1,3.76-2.17,3.9,3.9,0,0,1,2.32.66,3.3,3.3,0,0,1,1.25,1.87,3.82,3.82,0,0,1,3.93-2.53A3.56,3.56,0,0,1,254.79,221.71Z" style="fill:#fff"/><path d="M266.54,222a5.66,5.66,0,0,1,1.2,3.84c0,.26,0,.45,0,.57h-8a3.44,3.44,0,0,0,1.14,2.16,3.35,3.35,0,0,0,2.27.8,4.36,4.36,0,0,0,1.67-.32,4.1,4.1,0,0,0,1.35-.92l1,1a5.14,5.14,0,0,1-1.79,1.24,6,6,0,0,1-2.33.44,5.32,5.32,0,0,1-2.64-.64,4.49,4.49,0,0,1-1.79-1.8,5.39,5.39,0,0,1-.64-2.65,5.32,5.32,0,0,1,.64-2.64,4.65,4.65,0,0,1,1.78-1.82,5.21,5.21,0,0,1,2.61-.65A4.45,4.45,0,0,1,266.54,222Zm-.4,3a2.93,2.93,0,0,0-3.13-3,3.16,3.16,0,0,0-2.22.8,3.38,3.38,0,0,0-1.06,2.15Z" style="fill:#fff"/><path d="M278.55,221.7a3.91,3.91,0,0,1,1,2.87v6.23h-1.77V225a2.72,2.72,0,0,0-.71-2,2.68,2.68,0,0,0-2-.72,3.09,3.09,0,0,0-2.2.87,3.37,3.37,0,0,0-1,2.21v5.39h-1.78V220.71h1.78v2.14a3.87,3.87,0,0,1,3.83-2.19A3.67,3.67,0,0,1,278.55,221.7Z" style="fill:#fff"/><path d="M288.15,230.13a4.35,4.35,0,0,1-2.37.75,2.66,2.66,0,0,1-1.94-.72,2.85,2.85,0,0,1-.75-2.16v-5.59h-1.43v-1.35h1.43v-2.71h1.8v2.71H288v1.35h-3.08v5.26a1.94,1.94,0,0,0,.3,1.21,1.13,1.13,0,0,0,.91.36,3.18,3.18,0,0,0,1.57-.48Z" style="fill:#fff"/><path d="M297,221.31a4.66,4.66,0,0,1,1.83,1.8,5.23,5.23,0,0,1,.66,2.64,5.29,5.29,0,0,1-.66,2.65,4.68,4.68,0,0,1-1.83,1.81,5.45,5.45,0,0,1-2.68.65,5.56,5.56,0,0,1-2.7-.65,4.66,4.66,0,0,1-1.83-1.8,5.73,5.73,0,0,1,0-5.3,4.66,4.66,0,0,1,1.83-1.8,5.45,5.45,0,0,1,2.7-.65A5.35,5.35,0,0,1,297,221.31Zm-4.44,1.35a3.06,3.06,0,0,0-1.2,1.27,3.82,3.82,0,0,0-.43,1.84,3.94,3.94,0,0,0,.43,1.87,3,3,0,0,0,1.2,1.26,3.65,3.65,0,0,0,3.51,0,3.1,3.1,0,0,0,1.2-1.26,3.94,3.94,0,0,0,.43-1.87,3.82,3.82,0,0,0-.43-1.84,3.19,3.19,0,0,0-1.2-1.27,3.58,3.58,0,0,0-3.51,0Z" style="fill:#fff"/><polygon points="70.7 226.51 68.77 224.57 66.66 226.69 70.7 230.74 77.75 223.7 75.63 221.58 70.7 226.51" style="fill:#aaa"/><path d="M82.67,210.67h-3v-3H78a6,6,0,0,0-11.54,0H64.72v3h-3a3,3,0,0,0-3,3v20.94a3,3,0,0,0,3,3H82.67a3,3,0,0,0,3-3V213.67A3,3,0,0,0,82.67,210.67ZM72.2,206.19a3,3,0,0,1,2.59,1.49H69.61A3,3,0,0,1,72.2,206.19Zm-4.49,4.48h9v3h-9Zm15,23.94H61.73V213.67h3v3h15v-3h3Z" style="fill:#aaa"/><path d="M522.35,212a11.78,11.78,0,0,1,0,11.54,5.63,5.63,0,0,1-8.64,0,11.78,11.78,0,0,1,0-11.54,5.63,5.63,0,0,1,8.64,0Zm-6.7,1.63a11.4,11.4,0,0,0,0,8.29,2.78,2.78,0,0,0,4.76,0,11.54,11.54,0,0,0,0-8.29,2.79,2.79,0,0,0-4.76,0Z" style="fill:#aaa"/><path d="M531.78,211.29a6.36,6.36,0,0,1,0,6.75,3.48,3.48,0,0,1-5.33,0,6.34,6.34,0,0,1,0-6.74,3.53,3.53,0,0,1,5.33,0Zm-4.12,1.22a3.86,3.86,0,0,0-.51,2.15,4,4,0,0,0,.51,2.18,1.67,1.67,0,0,0,1.45.77,1.69,1.69,0,0,0,1.47-.77,3.88,3.88,0,0,0,.52-2.18,3.78,3.78,0,0,0-.52-2.15,1.69,1.69,0,0,0-1.47-.77A1.67,1.67,0,0,0,527.66,212.51Zm10.51-2.39h1.92l-9.88,15.34h-1.94Zm3.89,7.42a5.23,5.23,0,0,1,1,3.36,5.36,5.36,0,0,1-1,3.39,3.49,3.49,0,0,1-5.32,0,5.36,5.36,0,0,1-1-3.39,5.24,5.24,0,0,1,1-3.35,3.5,3.5,0,0,1,5.32,0ZM538,218.75a3.88,3.88,0,0,0-.51,2.15,4,4,0,0,0,.51,2.18,1.62,1.62,0,0,0,1.44.78,1.66,1.66,0,0,0,1.47-.78,3.86,3.86,0,0,0,.53-2.18,3.8,3.8,0,0,0-.53-2.15,1.67,1.67,0,0,0-1.47-.76A1.63,1.63,0,0,0,538,218.75Z" style="fill:#aaa"/><rect x="463.8" y="205.65" width="8.69" height="8.69" rx="1.02" style="fill:#363636"/><rect x="475.02" y="205.65" width="8.69" height="8.69" rx="1.02" style="fill:#363636"/><rect x="486.23" y="205.65" width="8.69" height="8.69" rx="1.02" style="fill:#363636"/><rect x="463.8" y="215.85" width="8.69" height="8.69" rx="1.02" style="fill:#363636"/><rect x="475.02" y="215.85" width="8.69" height="8.69" rx="1.02" style="fill:#363636"/><rect x="486.23" y="215.85" width="8.69" height="8.69" rx="1.02" style="fill:#363636"/><rect x="463.8" y="226.45" width="8.69" height="8.69" rx="1.02" style="fill:#363636"/><rect x="475.02" y="226.45" width="8.69" height="8.69" rx="1.02" style="fill:#363636"/><rect x="486.23" y="226.45" width="8.69" height="8.69" rx="1.02" style="fill:#363636"/><circle cx="35.4" cy="225.1" r="8.46" style="fill:#363636"/><circle cx="35.4" cy="225.1" r="4.49" style="fill:#1a1a1a"/><path d="M100.35,332h10.43v1.68h-4.31v11.67h-1.83V333.72h-4.29Z" style="fill:#fff"/><path d="M118.92,336.63a5.66,5.66,0,0,1,1.2,3.84c0,.26,0,.45,0,.57h-8a3.44,3.44,0,0,0,1.14,2.16,3.39,3.39,0,0,0,2.28.8,4.4,4.4,0,0,0,1.67-.32,4.16,4.16,0,0,0,1.34-.92l1,1a5,5,0,0,1-1.79,1.24,6,6,0,0,1-2.33.44,5.32,5.32,0,0,1-2.64-.64A4.56,4.56,0,0,1,111,343a5.39,5.39,0,0,1-.64-2.65,5.32,5.32,0,0,1,.64-2.64,4.72,4.72,0,0,1,1.78-1.82,5.27,5.27,0,0,1,2.62-.65A4.44,4.44,0,0,1,118.92,336.63Zm-.4,3a3.06,3.06,0,0,0-.91-2.16,3.09,3.09,0,0,0-2.21-.8,3.2,3.2,0,0,0-2.23.81,3.32,3.32,0,0,0-1,2.15Z" style="fill:#fff"/><path d="M126.68,336.92a5.11,5.11,0,0,0-1.45-.22A2.4,2.4,0,0,0,124,337a1,1,0,0,0-.49.91,1,1,0,0,0,.55.92,7.54,7.54,0,0,0,1.64.64,12.66,12.66,0,0,1,1.72.61,3,3,0,0,1,1.14.9,2.43,2.43,0,0,1,.46,1.56,2.51,2.51,0,0,1-1.07,2.18,4.67,4.67,0,0,1-2.68.74,6.79,6.79,0,0,1-2.19-.36,5,5,0,0,1-1.78-1l.67-1.3a4.72,4.72,0,0,0,1.55.92,5.39,5.39,0,0,0,1.8.34,2.63,2.63,0,0,0,1.41-.33,1.06,1.06,0,0,0,.54-1,1.15,1.15,0,0,0-.56-1A7.9,7.9,0,0,0,125,341a10.85,10.85,0,0,1-1.65-.59,2.84,2.84,0,0,1-1.09-.86,2.34,2.34,0,0,1-.45-1.49,2.42,2.42,0,0,1,1-2.12,4.48,4.48,0,0,1,2.58-.7,6.46,6.46,0,0,1,1.8.25,5.9,5.9,0,0,1,1.54.7l-.65,1.35A6.64,6.64,0,0,0,126.68,336.92Z" style="fill:#fff"/><path d="M136.73,344.72a4.29,4.29,0,0,1-2.36.75,2.7,2.7,0,0,1-2-.72,2.88,2.88,0,0,1-.74-2.16V337h-1.43v-1.35h1.43v-2.71h1.79v2.71h3.09V337h-3.09v5.26a1.87,1.87,0,0,0,.31,1.21,1.13,1.13,0,0,0,.91.36,3.18,3.18,0,0,0,1.57-.48Z" style="fill:#fff"/><path d="M146.35,336.63a5.66,5.66,0,0,1,1.2,3.84c0,.26,0,.45,0,.57h-8a3.43,3.43,0,0,0,1.13,2.16,3.39,3.39,0,0,0,2.28.8,4.4,4.4,0,0,0,1.67-.32,4.16,4.16,0,0,0,1.34-.92l1,1a5.18,5.18,0,0,1-1.8,1.24,6,6,0,0,1-2.32.44,5.33,5.33,0,0,1-2.65-.64,4.62,4.62,0,0,1-1.79-1.8,5.5,5.5,0,0,1-.64-2.65,5.43,5.43,0,0,1,.64-2.64,4.67,4.67,0,0,1,1.79-1.82,5.21,5.21,0,0,1,2.61-.65A4.47,4.47,0,0,1,146.35,336.63Zm-.41,3a3.06,3.06,0,0,0-.91-2.16,3.09,3.09,0,0,0-2.21-.8,3.16,3.16,0,0,0-2.22.81,3.29,3.29,0,0,0-1.06,2.15Z" style="fill:#fff"/><path d="M157.54,333.13a1.53,1.53,0,0,0-.46,1.2v1.32h2.79V337h-2.79v8.39h-1.77V337H154v-1.35h1.32v-1.09a3.59,3.59,0,0,1,.46-1.88,3.18,3.18,0,0,1,1.23-1.16,3.58,3.58,0,0,1,1.65-.39,4,4,0,0,1,1.75.45L160,333a3.14,3.14,0,0,0-1.3-.32A1.62,1.62,0,0,0,157.54,333.13Zm5.61-1.53a1.14,1.14,0,0,1,.32.82,1.12,1.12,0,0,1-.32.82,1,1,0,0,1-.79.33,1.06,1.06,0,0,1-.79-.33,1.12,1.12,0,0,1-.31-.82,1.13,1.13,0,0,1,.31-.82,1.09,1.09,0,0,1,.79-.32A1.07,1.07,0,0,1,163.15,331.6Zm-1.66,3.7h1.77v10.09h-1.77Z" style="fill:#fff"/><path d="M175.1,336.29a3.91,3.91,0,0,1,1,2.87v6.23h-1.77v-5.76a2.68,2.68,0,0,0-.72-2,2.64,2.64,0,0,0-2-.72,3.09,3.09,0,0,0-2.2.87,3.42,3.42,0,0,0-1,2.21v5.39h-1.77V335.3h1.77v2.14a3.9,3.9,0,0,1,3.84-2.19A3.67,3.67,0,0,1,175.1,336.29Z" style="fill:#fff"/><path d="M185.44,345.39V344a4.76,4.76,0,0,1-5.37,1.09,3,3,0,0,1-1.22-1.11,3,3,0,0,1-.43-1.58,2.6,2.6,0,0,1,1-2.15,4.58,4.58,0,0,1,2.79-.81h3.21V339a2.06,2.06,0,0,0-.66-1.65,2.81,2.81,0,0,0-1.92-.59,5.51,5.51,0,0,0-3.1,1.09l-.75-1.22a9.52,9.52,0,0,1,2-1,6.89,6.89,0,0,1,2.21-.31,4.18,4.18,0,0,1,2.91.92,3.34,3.34,0,0,1,1,2.59l0,6.63Zm-1.06-2a2.38,2.38,0,0,0,1-1.59v-1h-3a3.46,3.46,0,0,0-1.78.36,1.24,1.24,0,0,0-.58,1.14,1.46,1.46,0,0,0,.59,1.24,2.48,2.48,0,0,0,1.58.46A3.62,3.62,0,0,0,184.38,343.4Z" style="fill:#fff"/><path d="M190.45,331.24h1.78v14.15h-1.78Z" style="fill:#fff"/><polygon points="70.7 341.1 68.77 339.17 66.66 341.28 70.7 345.33 77.75 338.29 75.63 336.17 70.7 341.1" style="fill:#aaa"/><path d="M82.67,325.26h-3v-3H78a6,6,0,0,0-11.54,0H64.72v3h-3a3,3,0,0,0-3,3V349.2a3,3,0,0,0,3,3H82.67a3,3,0,0,0,3-3V328.26A3,3,0,0,0,82.67,325.26ZM72.2,320.78a3,3,0,0,1,2.59,1.49H69.61A3,3,0,0,1,72.2,320.78Zm-4.49,4.48h9v3h-9Zm15,23.94H61.73V328.26h3v3h15v-3h3Z" style="fill:#aaa"/><path d="M522.35,326.6a11.78,11.78,0,0,1,0,11.54,5.63,5.63,0,0,1-8.64,0,11.78,11.78,0,0,1,0-11.54,5.63,5.63,0,0,1,8.64,0Zm-6.7,1.63a11.4,11.4,0,0,0,0,8.29,2.78,2.78,0,0,0,4.76,0,11.54,11.54,0,0,0,0-8.29,2.79,2.79,0,0,0-4.76,0Z" style="fill:#aaa"/><path d="M531.78,325.88a6.36,6.36,0,0,1,0,6.75,3.48,3.48,0,0,1-5.33,0,6.34,6.34,0,0,1,0-6.74,3.53,3.53,0,0,1,5.33,0Zm-4.12,1.22a3.86,3.86,0,0,0-.51,2.15,4,4,0,0,0,.51,2.18,1.67,1.67,0,0,0,1.45.77,1.69,1.69,0,0,0,1.47-.77,3.88,3.88,0,0,0,.52-2.18,3.78,3.78,0,0,0-.52-2.15,1.69,1.69,0,0,0-1.47-.77A1.67,1.67,0,0,0,527.66,327.1Zm10.51-2.39h1.92l-9.88,15.34h-1.94Zm3.89,7.42a5.23,5.23,0,0,1,1,3.36,5.36,5.36,0,0,1-1,3.39,3.49,3.49,0,0,1-5.32,0,5.36,5.36,0,0,1-1-3.39,5.24,5.24,0,0,1,1-3.35,3.5,3.5,0,0,1,5.32,0ZM538,333.34a3.86,3.86,0,0,0-.51,2.15,4,4,0,0,0,.51,2.18,1.62,1.62,0,0,0,1.44.78,1.66,1.66,0,0,0,1.47-.78,3.86,3.86,0,0,0,.53-2.18,3.77,3.77,0,0,0-.53-2.15,1.67,1.67,0,0,0-1.47-.76A1.63,1.63,0,0,0,538,333.34Z" style="fill:#aaa"/><rect x="463.8" y="320.24" width="8.69" height="8.69" rx="1.02" style="fill:#363636"/><rect x="475.02" y="320.24" width="8.69" height="8.69" rx="1.02" style="fill:#363636"/><rect x="486.23" y="320.24" width="8.69" height="8.69" rx="1.02" style="fill:#363636"/><rect x="463.8" y="330.44" width="8.69" height="8.69" rx="1.02" style="fill:#363636"/><rect x="475.02" y="330.44" width="8.69" height="8.69" rx="1.02" style="fill:#363636"/><rect x="486.23" y="330.44" width="8.69" height="8.69" rx="1.02" style="fill:#363636"/><rect x="463.8" y="341.04" width="8.69" height="8.69" rx="1.02" style="fill:#363636"/><rect x="475.02" y="341.04" width="8.69" height="8.69" rx="1.02" style="fill:#363636"/><rect x="486.23" y="341.04" width="8.69" height="8.69" rx="1.02" style="fill:#363636"/><circle cx="35.4" cy="339.69" r="8.46" style="fill:#363636"/><circle cx="35.4" cy="339.69" r="4.49" style="fill:#1a1a1a"/><circle cx="35.4" cy="162.58" r="8.46" style="fill:#363636"/><circle cx="35.4" cy="162.58" r="4.49" style="fill:#1a1a1a"/><path d="M100.35,156.39h10.43v1.68h-4.31v11.67h-1.83V158.07h-4.29Z" style="fill:#fff"/><path d="M118.92,161a5.66,5.66,0,0,1,1.2,3.84c0,.25,0,.44,0,.57h-8a3.46,3.46,0,0,0,1.14,2.16,3.39,3.39,0,0,0,2.28.8,4.22,4.22,0,0,0,1.67-.33,4,4,0,0,0,1.34-.91l1,1a5.18,5.18,0,0,1-1.79,1.24,6,6,0,0,1-2.33.44,5.43,5.43,0,0,1-2.64-.64,4.52,4.52,0,0,1-1.79-1.81,5.79,5.79,0,0,1,0-5.29,4.69,4.69,0,0,1,1.78-1.81,5.18,5.18,0,0,1,2.62-.66A4.41,4.41,0,0,1,118.92,161Zm-.4,3a3.08,3.08,0,0,0-.91-2.17,3.13,3.13,0,0,0-2.21-.79,3.24,3.24,0,0,0-2.23.8,3.37,3.37,0,0,0-1,2.16Z" style="fill:#fff"/><path d="M126.68,161.27a5.14,5.14,0,0,0-1.45-.23,2.4,2.4,0,0,0-1.28.3,1,1,0,0,0-.49.9,1,1,0,0,0,.55.93,8.09,8.09,0,0,0,1.64.64,12.66,12.66,0,0,1,1.72.61,3.08,3.08,0,0,1,1.14.89,2.8,2.8,0,0,1-.61,3.74,4.6,4.6,0,0,1-2.68.75,6.54,6.54,0,0,1-2.19-.37,4.88,4.88,0,0,1-1.78-1l.67-1.29a4.71,4.71,0,0,0,1.55.91,5.17,5.17,0,0,0,1.8.35,2.63,2.63,0,0,0,1.41-.33,1.06,1.06,0,0,0,.54-1,1.13,1.13,0,0,0-.56-1,7.83,7.83,0,0,0-1.71-.69,11,11,0,0,1-1.65-.58,2.77,2.77,0,0,1-1.09-.87,2.31,2.31,0,0,1-.45-1.48,2.42,2.42,0,0,1,1-2.12,4.48,4.48,0,0,1,2.58-.71,6.48,6.48,0,0,1,1.8.26,5.59,5.59,0,0,1,1.54.7l-.65,1.35A6.15,6.15,0,0,0,126.68,161.27Z" style="fill:#fff"/><path d="M136.73,169.07a4.28,4.28,0,0,1-2.36.74,2.69,2.69,0,0,1-2-.71,2.9,2.9,0,0,1-.74-2.16v-5.59h-1.43V160h1.43v-2.7h1.79V160h3.09v1.36h-3.09v5.26a1.82,1.82,0,0,0,.31,1.2,1.13,1.13,0,0,0,.91.37,3.18,3.18,0,0,0,1.57-.48Z" style="fill:#fff"/><path d="M146.35,161a5.66,5.66,0,0,1,1.2,3.84c0,.25,0,.44,0,.57h-8a3.45,3.45,0,0,0,1.13,2.16,3.39,3.39,0,0,0,2.28.8,4.22,4.22,0,0,0,1.67-.33,4,4,0,0,0,1.34-.91l1,1a5.31,5.31,0,0,1-1.8,1.24,6,6,0,0,1-2.32.44,5.44,5.44,0,0,1-2.65-.64,4.58,4.58,0,0,1-1.79-1.81,5.79,5.79,0,0,1,0-5.29,4.65,4.65,0,0,1,1.79-1.81,5.11,5.11,0,0,1,2.61-.66A4.45,4.45,0,0,1,146.35,161Zm-.41,3a3.08,3.08,0,0,0-.91-2.17,3.13,3.13,0,0,0-2.21-.79,3.2,3.2,0,0,0-2.22.8,3.33,3.33,0,0,0-1.06,2.16Z" style="fill:#fff"/><path d="M164.37,155.59v14.15h-1.78v-2a4,4,0,0,1-1.53,1.55,4.53,4.53,0,0,1-2.24.54,4.89,4.89,0,0,1-2.53-.65,4.57,4.57,0,0,1-1.71-1.83,5.84,5.84,0,0,1-.61-2.68,5.66,5.66,0,0,1,.61-2.65,4.63,4.63,0,0,1,1.71-1.8,4.86,4.86,0,0,1,2.51-.65,4.62,4.62,0,0,1,2.27.54,3.76,3.76,0,0,1,1.52,1.54v-6.06Zm-3.43,12.26a3.11,3.11,0,0,0,1.21-1.28,3.75,3.75,0,0,0,.44-1.85,3.83,3.83,0,0,0-.44-1.87,3.15,3.15,0,0,0-1.21-1.27,3.58,3.58,0,0,0-3.53,0,3.39,3.39,0,0,0-1.21,1.28,3.91,3.91,0,0,0-.43,1.85,3.86,3.86,0,0,0,.43,1.85,3.25,3.25,0,0,0,1.21,1.28,3.39,3.39,0,0,0,1.77.46A3.33,3.33,0,0,0,160.94,167.85Z" style="fill:#fff"/><path d="M175.52,161a5.66,5.66,0,0,1,1.2,3.84,4.38,4.38,0,0,1,0,.57h-8a3.46,3.46,0,0,0,1.14,2.16,3.36,3.36,0,0,0,2.28.8,4.17,4.17,0,0,0,1.66-.33,3.93,3.93,0,0,0,1.35-.91l1,1a5.18,5.18,0,0,1-1.79,1.24,6,6,0,0,1-2.33.44,5.43,5.43,0,0,1-2.64-.64,4.52,4.52,0,0,1-1.79-1.81,5.79,5.79,0,0,1,0-5.29,4.69,4.69,0,0,1,1.78-1.81,5.18,5.18,0,0,1,2.62-.66A4.41,4.41,0,0,1,175.52,161Zm-.4,3a3.08,3.08,0,0,0-.91-2.17,3.14,3.14,0,0,0-2.22-.79,3.2,3.2,0,0,0-2.22.8,3.43,3.43,0,0,0-1.06,2.16Z" style="fill:#fff"/><path d="M192.21,158.34a5.25,5.25,0,0,0-2.08-.44,5.11,5.11,0,0,0-2.59.68,5.14,5.14,0,0,0,2.59,9.58,5.36,5.36,0,0,0,2.06-.43,6,6,0,0,0,1.79-1.18l1.11,1.21a7.45,7.45,0,0,1-2.35,1.55,6.82,6.82,0,0,1-2.71.56,7,7,0,0,1-3.49-.9,6.77,6.77,0,0,1-3.41-5.92,6.57,6.57,0,0,1,.93-3.43,6.66,6.66,0,0,1,2.52-2.45,7.37,7.37,0,0,1,6.23-.37,6.67,6.67,0,0,1,2.26,1.48L194,159.59A5.64,5.64,0,0,0,192.21,158.34Z" style="fill:#fff"/><path d="M204,160.24a4.66,4.66,0,0,1,1.83,1.8,5.24,5.24,0,0,1,.66,2.65,5.29,5.29,0,0,1-.66,2.65,4.68,4.68,0,0,1-1.83,1.81,5.89,5.89,0,0,1-5.38,0,4.73,4.73,0,0,1-1.83-1.8,5.67,5.67,0,0,1,0-5.31,4.66,4.66,0,0,1,1.83-1.8,5.89,5.89,0,0,1,5.38,0Zm-4.44,1.36a3,3,0,0,0-1.2,1.26,3.84,3.84,0,0,0-.43,1.84,3.91,3.91,0,0,0,.43,1.87,3,3,0,0,0,1.2,1.27,3.65,3.65,0,0,0,3.51,0,3.13,3.13,0,0,0,1.2-1.27,4,4,0,0,0,.43-1.87,4,4,0,0,0-.43-1.84,3.17,3.17,0,0,0-1.2-1.26,3.58,3.58,0,0,0-3.51,0Z" style="fill:#fff"/><path d="M224.76,160.64a4,4,0,0,1,1,2.86v6.24H224V164a2.74,2.74,0,0,0-.7-2,2.49,2.49,0,0,0-1.91-.73,2.92,2.92,0,0,0-2.25,1,3.73,3.73,0,0,0-.83,2.5v5h-1.79V164a2.82,2.82,0,0,0-.68-2,2.51,2.51,0,0,0-1.93-.73,3,3,0,0,0-2.26,1,3.73,3.73,0,0,0-.83,2.5v5H209V159.65h1.77v2.12a3.81,3.81,0,0,1,3.76-2.18,3.85,3.85,0,0,1,2.31.67,3.25,3.25,0,0,1,1.25,1.87,3.84,3.84,0,0,1,3.93-2.54A3.57,3.57,0,0,1,224.76,160.64Z" style="fill:#fff"/><path d="M237,160.24a4.48,4.48,0,0,1,1.72,1.81,5.77,5.77,0,0,1,.61,2.67,5.61,5.61,0,0,1-.6,2.64,4.47,4.47,0,0,1-1.7,1.8,5,5,0,0,1-2.51.64,4.57,4.57,0,0,1-2.25-.54,3.79,3.79,0,0,1-1.53-1.52v5.7H229V159.65h1.77v2a3.83,3.83,0,0,1,1.52-1.52,4.45,4.45,0,0,1,2.22-.54A4.93,4.93,0,0,1,237,160.24Zm-1.12,7.55a3.15,3.15,0,0,0,1.21-1.27,4,4,0,0,0,.42-1.85,3.8,3.8,0,0,0-.43-1.83,3.25,3.25,0,0,0-2.94-1.74,3.34,3.34,0,0,0-1.75.46,3.25,3.25,0,0,0-1.21,1.28,3.81,3.81,0,0,0-.44,1.83,3.87,3.87,0,0,0,.44,1.86,3.26,3.26,0,0,0,1.21,1.26,3.34,3.34,0,0,0,1.75.46A3.28,3.28,0,0,0,235.92,167.79Z" style="fill:#fff"/><path d="M245,160.18a4.2,4.2,0,0,1,2.17-.59v1.72a3.25,3.25,0,0,0-3.58,3.11v5.32h-1.77V159.65h1.77v2.17A3.62,3.62,0,0,1,245,160.18Z" style="fill:#fff"/><path d="M256.72,161a5.66,5.66,0,0,1,1.2,3.84c0,.25,0,.44,0,.57h-8a3.5,3.5,0,0,0,1.13,2.16,3.39,3.39,0,0,0,2.28.8A4.18,4.18,0,0,0,255,168a3.93,3.93,0,0,0,1.35-.91l1,1a5.27,5.27,0,0,1-1.79,1.24,6,6,0,0,1-2.33.44,5.43,5.43,0,0,1-2.64-.64,4.46,4.46,0,0,1-1.79-1.81,5.79,5.79,0,0,1,0-5.29,4.62,4.62,0,0,1,1.78-1.81,5.11,5.11,0,0,1,2.61-.66A4.42,4.42,0,0,1,256.72,161Zm-.4,3a2.93,2.93,0,0,0-3.13-3,3.2,3.2,0,0,0-2.22.8,3.43,3.43,0,0,0-1.06,2.16Z" style="fill:#fff"/><path d="M267.93,161a5.66,5.66,0,0,1,1.2,3.84,4.38,4.38,0,0,1,0,.57h-8a3.46,3.46,0,0,0,1.14,2.16,3.36,3.36,0,0,0,2.28.8,4.25,4.25,0,0,0,1.67-.33,4,4,0,0,0,1.34-.91l1,1a5.18,5.18,0,0,1-1.79,1.24,6,6,0,0,1-2.33.44,5.43,5.43,0,0,1-2.64-.64,4.52,4.52,0,0,1-1.79-1.81,5.79,5.79,0,0,1,0-5.29,4.69,4.69,0,0,1,1.78-1.81,5.18,5.18,0,0,1,2.62-.66A4.41,4.41,0,0,1,267.93,161Zm-.4,3a3.08,3.08,0,0,0-.91-2.17,3.14,3.14,0,0,0-2.22-.79,3.2,3.2,0,0,0-2.22.8,3.43,3.43,0,0,0-1.06,2.16Z" style="fill:#fff"/><path d="M280,160.63a4,4,0,0,1,1,2.87v6.24h-1.78V164a2.7,2.7,0,0,0-.71-2,2.68,2.68,0,0,0-2-.72,3,3,0,0,0-2.2.87,3.41,3.41,0,0,0-1,2.2v5.4h-1.77V159.65h1.77v2.14a3.89,3.89,0,0,1,3.83-2.2A3.74,3.74,0,0,1,280,160.63Z" style="fill:#fff"/><path d="M288.25,161.27a5,5,0,0,0-1.44-.23,2.46,2.46,0,0,0-1.29.3,1,1,0,0,0-.48.9,1,1,0,0,0,.54.93,8,8,0,0,0,1.65.64,13.18,13.18,0,0,1,1.72.61,3,3,0,0,1,1.13.89,2.77,2.77,0,0,1-.61,3.74,4.58,4.58,0,0,1-2.68.75,6.44,6.44,0,0,1-2.18-.37,4.92,4.92,0,0,1-1.79-1l.67-1.29a4.76,4.76,0,0,0,1.56.91,5.09,5.09,0,0,0,1.8.35,2.68,2.68,0,0,0,1.41-.33,1.06,1.06,0,0,0,.53-1,1.12,1.12,0,0,0-.56-1,7.43,7.43,0,0,0-1.71-.69,11.37,11.37,0,0,1-1.65-.58,2.82,2.82,0,0,1-1.08-.87,2.31,2.31,0,0,1-.45-1.48,2.39,2.39,0,0,1,1-2.12,4.45,4.45,0,0,1,2.57-.71,6.6,6.6,0,0,1,1.81.26,5.39,5.39,0,0,1,1.53.7l-.65,1.35A6.15,6.15,0,0,0,288.25,161.27Z" style="fill:#fff"/><path d="M299.05,169.74v-1.41a4.12,4.12,0,0,1-3.52,1.48,4,4,0,0,1-1.84-.4,2.84,2.84,0,0,1-1.22-1.1,3,3,0,0,1-.43-1.58,2.58,2.58,0,0,1,1-2.15,4.43,4.43,0,0,1,2.79-.81H299v-.48a2.12,2.12,0,0,0-.65-1.65,2.86,2.86,0,0,0-1.92-.58,5.46,5.46,0,0,0-3.11,1.09l-.74-1.22a9.07,9.07,0,0,1,2-1,6.85,6.85,0,0,1,2.2-.32,4.21,4.21,0,0,1,2.92.93,3.33,3.33,0,0,1,1.05,2.58l0,6.64Zm.15-12.25a1.25,1.25,0,0,1-1.18.65,1.93,1.93,0,0,1-.75-.15,5.19,5.19,0,0,1-.83-.46,5.82,5.82,0,0,0-.54-.3,1,1,0,0,0-.37-.1c-.41,0-.61.32-.61.94h-1.24a3.33,3.33,0,0,1,.37-1.67,1.25,1.25,0,0,1,1.17-.66,1.9,1.9,0,0,1,.73.14,8.26,8.26,0,0,1,.85.45c.23.14.41.24.55.31a.87.87,0,0,0,.37.09c.41,0,.61-.3.61-.91h1.24A3.47,3.47,0,0,1,299.2,157.49ZM298,167.75a2.39,2.39,0,0,0,1-1.6v-1h-2.95a3.33,3.33,0,0,0-1.78.37,1.24,1.24,0,0,0-.59,1.14,1.49,1.49,0,0,0,.6,1.24,2.54,2.54,0,0,0,1.58.46A3.64,3.64,0,0,0,298,167.75Z" style="fill:#fff"/><path d="M310.85,160.24a4.66,4.66,0,0,1,1.83,1.8,5.24,5.24,0,0,1,.66,2.65,5.29,5.29,0,0,1-.66,2.65,4.68,4.68,0,0,1-1.83,1.81,5.89,5.89,0,0,1-5.38,0,4.73,4.73,0,0,1-1.83-1.8,5.67,5.67,0,0,1,0-5.31,4.66,4.66,0,0,1,1.83-1.8,5.89,5.89,0,0,1,5.38,0Zm-4.45,1.36a3.17,3.17,0,0,0-1.2,1.26,4,4,0,0,0-.43,1.84,4,4,0,0,0,.43,1.87,3.13,3.13,0,0,0,1.2,1.27,3.48,3.48,0,0,0,1.77.45,3.37,3.37,0,0,0,1.74-.45,3,3,0,0,0,1.2-1.27,3.91,3.91,0,0,0,.43-1.87,3.84,3.84,0,0,0-.43-1.84,3,3,0,0,0-1.2-1.26,3.28,3.28,0,0,0-1.74-.46A3.39,3.39,0,0,0,306.4,161.6Z" style="fill:#fff"/><polygon points="70.7 166.45 68.77 164.51 66.66 166.63 70.7 170.68 77.75 163.63 75.63 161.52 70.7 166.45" style="fill:#aaa"/><path d="M82.67,150.61h-3v-3H78a6,6,0,0,0-11.54,0H64.72v3h-3a3,3,0,0,0-3,3v20.94a3,3,0,0,0,3,3H82.67a3,3,0,0,0,3-3V153.6A3,3,0,0,0,82.67,150.61ZM72.2,146.12a3,3,0,0,1,2.59,1.5H69.61A3,3,0,0,1,72.2,146.12Zm-4.49,4.49h9v3h-9Zm15,23.93H61.73V153.6h3v3h15v-3h3Z" style="fill:#aaa"/><path d="M522.35,151.94a11.8,11.8,0,0,1,0,11.55,5.65,5.65,0,0,1-8.64,0,11.8,11.8,0,0,1,0-11.55,5.65,5.65,0,0,1,8.64,0Zm-6.7,1.64a11.4,11.4,0,0,0,0,8.29,2.79,2.79,0,0,0,4.76,0,11.54,11.54,0,0,0,0-8.29,2.79,2.79,0,0,0-4.76,0Z" style="fill:#aaa"/><path d="M531.78,151.23a5.23,5.23,0,0,1,1,3.36,5.34,5.34,0,0,1-1,3.39,3.48,3.48,0,0,1-5.33,0,5.4,5.4,0,0,1-1-3.39,5.32,5.32,0,0,1,1-3.35,3.2,3.2,0,0,1,2.66-1.22A3.23,3.23,0,0,1,531.78,151.23Zm-4.12,1.22a3.83,3.83,0,0,0-.51,2.14,3.93,3.93,0,0,0,.51,2.18,1.65,1.65,0,0,0,1.45.78,1.67,1.67,0,0,0,1.47-.78,3.84,3.84,0,0,0,.52-2.18,3.74,3.74,0,0,0-.52-2.14,1.69,1.69,0,0,0-1.47-.77A1.67,1.67,0,0,0,527.66,152.45Zm10.51-2.39h1.92l-9.88,15.33h-1.94Zm3.89,7.41a6.36,6.36,0,0,1,0,6.75,3.47,3.47,0,0,1-5.32,0,5.31,5.31,0,0,1-1-3.38,5.22,5.22,0,0,1,1-3.35,3.51,3.51,0,0,1,5.32,0ZM538,158.69a3.86,3.86,0,0,0-.51,2.15A4,4,0,0,0,538,163a1.62,1.62,0,0,0,1.44.78,1.66,1.66,0,0,0,1.47-.78,3.88,3.88,0,0,0,.53-2.18,3.77,3.77,0,0,0-.53-2.15,1.68,1.68,0,0,0-1.47-.77A1.64,1.64,0,0,0,538,158.69Z" style="fill:#aaa"/><rect x="463.8" y="145.59" width="8.69" height="8.69" rx="1.02" style="fill:#363636"/><rect x="475.02" y="145.59" width="8.69" height="8.69" rx="1.02" style="fill:#363636"/><rect x="486.23" y="145.59" width="8.69" height="8.69" rx="1.02" style="fill:#363636"/><rect x="463.8" y="155.78" width="8.69" height="8.69" rx="1.02" style="fill:#363636"/><rect x="475.02" y="155.78" width="8.69" height="8.69" rx="1.02" style="fill:#363636"/><rect x="486.23" y="155.78" width="8.69" height="8.69" rx="1.02" style="fill:#363636"/><rect x="463.8" y="166.39" width="8.69" height="8.69" rx="1.02" style="fill:#363636"/><rect x="475.02" y="166.39" width="8.69" height="8.69" rx="1.02" style="fill:#363636"/><rect x="486.23" y="166.39" width="8.69" height="8.69" rx="1.02" style="fill:#363636"/></svg>