<?xml version="1.0" encoding="utf-8"?>
<svg style="enable-background:new 0 0 86.76 81.17;" id="Layer_1" version="1.1"
    viewBox="0 0 86.76 81.17" x="0px" xmlns="http://www.w3.org/2000/svg" y="0px"
    xml:space="preserve">
<g>
	<g>
		<g>
			<g>
				<path style="fill:#AAAAAA;" d="M2.22,37.6C0.84,39.13,0,41.16,0,43.38c0,4.78,3.89,8.68,8.68,8.68h16.84
					c-1.67,5.06-2.38,11.78-2.38,14.65v2.89c0,6.38,5.19,11.57,11.57,11.57h2.89c1.33,0,2.48-0.9,2.81-2.19l1.58-6.3
					c2.21-8.83,9.22-18.56,16.47-20.33c1.27,3.22,4.41,5.5,8.07,5.5h17.35c1.6,0,2.89-1.3,2.89-2.89V2.89c0-1.6-1.3-2.89-2.89-2.89
					L66.52,0c-3.45,0-6.43,2.02-7.83,4.95l-9.94-3.31C45.5,0.55,42.11,0,38.69,0L14.46,0C9.68,0,5.78,3.89,5.78,8.68
					c0,1.13,0.22,2.21,0.61,3.2C2.71,12.88,0,16.25,0,20.24c0,2.22,0.84,4.25,2.22,5.78C0.84,27.56,0,29.59,0,31.81
					C0,34.03,0.84,36.06,2.22,37.6z M63.62,8.68c0-1.59,1.3-2.89,2.89-2.89h14.46v46.27H66.52c-1.59,0-2.89-1.3-2.89-2.89V8.68z
					 M14.46,34.7H8.68c-1.59,0-2.89-1.3-2.89-2.89c0-1.59,1.3-2.89,2.89-2.89h5.78c1.6,0,2.89-1.3,2.89-2.89s-1.3-2.89-2.89-2.89
					H8.68c-1.59,0-2.89-1.3-2.89-2.89c0-1.59,1.3-2.89,2.89-2.89h5.78c1.6,0,2.89-1.3,2.89-2.89s-1.3-2.89-2.89-2.89
					c-1.59,0-2.89-1.3-2.89-2.89s1.3-2.89,2.89-2.89h24.23c2.8,0,5.57,0.45,8.23,1.34l10.92,3.64v35.79
					c-4.54,0.86-8.98,3.73-12.99,8.44c-3.91,4.59-7.09,10.68-8.49,16.29l-1.03,4.11H34.7c-3.19,0-5.78-2.6-5.78-5.78v-2.89
					c0-3.88,1.21-11.33,2.77-14.65h5.91c1.6,0,2.89-1.3,2.89-2.89c0-1.6-1.3-2.89-2.89-2.89H8.68c-1.59,0-2.89-1.3-2.89-2.89
					s1.3-2.89,2.89-2.89h5.78c1.6,0,2.89-1.3,2.89-2.89C17.35,36,16.06,34.7,14.46,34.7z" />
			</g>
		</g>
	</g>
</g>
</svg>
