<?xml version="1.0" encoding="utf-8"?>
<svg style="enable-background:new 0 0 86.76 81.17;" id="Layer_1" version="1.1"
    viewBox="0 0 86.76 81.17" x="0px" xmlns="http://www.w3.org/2000/svg" y="0px"
    xml:space="preserve">
<g>
	<g>
		<g>
			<g>
				<path style="fill:#AAAAAA;" d="M84.54,43.57c1.38-1.54,2.22-3.56,2.22-5.78c0-4.78-3.89-8.68-8.68-8.68H61.24
					c1.67-5.06,2.38-11.78,2.38-14.65v-2.89C63.62,5.19,58.43,0,52.06,0h-2.89c-1.33,0-2.48,0.9-2.81,2.19l-1.58,6.3
					c-2.21,8.83-9.22,18.56-16.47,20.33c-1.27-3.22-4.41-5.5-8.07-5.5H2.89c-1.6,0-2.89,1.3-2.89,2.89v52.06
					c0,1.6,1.3,2.89,2.89,2.89h17.35c3.45,0,6.43-2.02,7.83-4.95l9.94,3.31c3.25,1.08,6.63,1.63,10.06,1.63H72.3
					c4.78,0,8.68-3.89,8.68-8.68c0-1.13-0.22-2.21-0.61-3.2c3.68-1,6.39-4.38,6.39-8.37c0-2.22-0.84-4.25-2.22-5.78
					c1.38-1.54,2.22-3.56,2.22-5.78S85.92,45.11,84.54,43.57z M23.14,72.49c0,1.59-1.3,2.89-2.89,2.89H5.78V29.11h14.46
					c1.59,0,2.89,1.3,2.89,2.89V72.49z M72.3,46.46h5.78c1.59,0,2.89,1.3,2.89,2.89s-1.3,2.89-2.89,2.89H72.3
					c-1.6,0-2.89,1.3-2.89,2.89c0,1.6,1.3,2.89,2.89,2.89h5.78c1.59,0,2.89,1.3,2.89,2.89s-1.3,2.89-2.89,2.89H72.3
					c-1.6,0-2.89,1.3-2.89,2.89s1.3,2.89,2.89,2.89c1.59,0,2.89,1.3,2.89,2.89s-1.3,2.89-2.89,2.89H48.07
					c-2.8,0-5.57-0.45-8.23-1.34l-10.92-3.64V34.62c4.54-0.86,8.98-3.73,12.99-8.44c3.91-4.59,7.09-10.68,8.49-16.29l1.03-4.11h0.63
					c3.19,0,5.78,2.6,5.78,5.78v2.89c0,3.88-1.21,11.33-2.77,14.65h-5.91c-1.6,0-2.89,1.3-2.89,2.89c0,1.6,1.3,2.89,2.89,2.89h28.92
					c1.59,0,2.89,1.3,2.89,2.89s-1.3,2.89-2.89,2.89H72.3c-1.6,0-2.89,1.3-2.89,2.89C69.41,45.17,70.7,46.46,72.3,46.46z" />
			</g>
		</g>
	</g>
</g>
</svg>
