<svg xmlns:xlink="http://www.w3.org/1999/xlink"
    viewBox="0 0 147.43 152.55" xmlns="http://www.w3.org/2000/svg">
    <defs>
        <filter color-interpolation-filters="sRGB" filterUnits="userSpaceOnUse" height="32766" id="luminosity-noclip" width="0.68"
            x="49.12" y="-8264.28">
            <feFlood flood-color="#fff" result="bg" />
            <feBlend in="SourceGraphic" in2="bg" />
        </filter>
        <mask height="32766" id="mask" maskUnits="userSpaceOnUse" width="0.68" x="49.12"
            y="-8264.28">
            <g style="filter:url(#luminosity-noclip)" />
        </mask>
        <radialGradient cx="3481.54" cy="1963.63" gradientTransform="matrix(-11.89, 0, 0, 14.16, 41443.37, -27741.66)" gradientUnits="userSpaceOnUse"
            id="radial-gradient"
            r="0.03">
            <stop offset="0" stop-color="#fff" />
            <stop offset="1" stop-color="#f2f2f2" />
        </radialGradient>
        <filter color-interpolation-filters="sRGB" filterUnits="userSpaceOnUse" height="32766" id="luminosity-noclip-2" width="0.42"
            x="49.25" y="-8264.28">
            <feFlood flood-color="#fff" result="bg" />
            <feBlend in="SourceGraphic" in2="bg" />
        </filter>
        <mask height="32766" id="mask-2" maskUnits="userSpaceOnUse" width="0.42" x="49.25"
            y="-8264.28">
            <g style="filter:url(#luminosity-noclip-2)" />
        </mask>
        <radialGradient cx="3278.09" cy="1880.43" gradientTransform="matrix(-12.46, 0, 0, 14.8, 40886.61, -27765.71)" id="radial-gradient-2"
            r="0.02"
            xlink:href="#radial-gradient" />
        <filter color-interpolation-filters="sRGB" filterUnits="userSpaceOnUse" height="0.81" id="luminosity-noclip-3" width="0.68"
            x="49.12" y="71.53">
            <feFlood flood-color="#fff" result="bg" />
            <feBlend in="SourceGraphic" in2="bg" />
        </filter>
        <mask height="0.81" id="mask-3" maskUnits="userSpaceOnUse" width="0.68" x="49.12" y="71.53">
            <g style="mask:url(#mask);filter:url(#luminosity-noclip-3)">
                <path style="mix-blend-mode:multiply;fill:url(#radial-gradient)"
                    d="M49.12,71.93a.34.34,0,1,0,.34-.4A.37.37,0,0,0,49.12,71.93Z" />
            </g>
        </mask>
        <radialGradient cx="3481.54" cy="1963.63" gradientTransform="matrix(-11.89, 0, 0, 14.16, 41443.37, -27741.66)" gradientUnits="userSpaceOnUse"
            id="radial-gradient-3"
            r="0.03">
            <stop offset="0" stop-color="#3e3e3f" />
            <stop offset="0.32" stop-color="#312f30" />
            <stop offset="0.95" stop-color="#100809" />
            <stop offset="1" stop-color="#0d0406" />
        </radialGradient>
        <filter color-interpolation-filters="sRGB" filterUnits="userSpaceOnUse" height="0.5" id="luminosity-noclip-4" width="0.42"
            x="49.25" y="71.68">
            <feFlood flood-color="#fff" result="bg" />
            <feBlend in="SourceGraphic" in2="bg" />
        </filter>
        <mask height="0.5" id="mask-4" maskUnits="userSpaceOnUse" width="0.42" x="49.25" y="71.68">
            <g style="mask:url(#mask-2);filter:url(#luminosity-noclip-4)">
                <path style="mix-blend-mode:multiply;fill:url(#radial-gradient-2)"
                    d="M49.25,71.93a.21.21,0,1,0,.21-.25A.23.23,0,0,0,49.25,71.93Z" />
            </g>
        </mask>
        <radialGradient cx="3278.09" cy="1880.43" gradientTransform="matrix(-12.46, 0, 0, 14.8, 40886.61, -27765.71)" id="radial-gradient-4"
            r="0.02"
            xlink:href="#radial-gradient-3" />
    </defs>

    <path
        style="fill:#b2208c"
        d="M89.66,118.7s14.9-8.73,22.15-26c17.77-28.85-22.47-56.54-19.58-67.58s21.14-7.95,29.72-5.08c-13.22-27.18-56-22.88-66.26-9.65-9.31,12-3,45.41,32.9,51.18,12.64.4,15,45.37-1.56,59Z" />
    <path
        style="fill:#b2208c"
        d="M71.13,77.89c-.75.1-1.5.22-2.25.37s-1.42.32-2.13.53C58.64,81.84,55.23,90,55,90.56s-.38,1.07-.54,1.63c-1.79,6.12-1.18,13.88,8.4,20.42,0,0-9.58-.61-9.2,4s-3.27,4.56,8.9,4.56H83s6.65-7.7,8.22-10.67C95.65,102,102.76,75,71.13,77.89Z" />
    <path
        style="fill:#b2208c"
        d="M57.94,112s-15.7-10.66-7.61-28.31c0,0-8.09.31-10.71,9.87C39,99.11,52.47,112,52.47,112A18.28,18.28,0,0,0,49,113.28c-.56.29-2.31,2-1.61,1-1.1,1.3-1.4,1.71-1.2,1.28a3.88,3.88,0,0,0-.37,1.56c.15-1.1,0-.07.82,1.83-.75-1.84-.43-1.21.86,0-.94-1.21,1.2,0,1.88,0h2.74S49.11,114.1,57.94,112Z" />
    <path
        style="fill:#b2208c"
        d="M72.29,65.74s-4.5-6.4-12,4.4C57,74.94,49.58,80.42,47.42,79.41a1.91,1.91,0,0,0,.19.57c2.35.14,18.26.24,24.57-6.29C75.51,70.25,72.29,65.74,72.29,65.74Z" />
    <path
        style="fill:#b2208c"
        d="M46.38,76.4c-.64.34-7-8.29-9.3-17q-.27-1-.45-2C35,51,42.25,43.79,42.93,43.51a17.5,17.5,0,0,1,2.22-.74c.81-.21,4.83-.38,5.76-.51,0,0,1.41-6,2.53-4.18.59,1,2.27,2.28,2.68,4.82C62.66,49.78,73.56,61.38,46.38,76.4Z" />
    <path style="fill:#b2208c"
        d="M45.43,79.29s-2.54-1.48-2.94-3.78C42.49,75.51,41.67,79.86,45.43,79.29Z" />
    <path style="fill:#b2208c"
        d="M44.22,46.21s6.69.61-2-7.29C42.23,38.92,37.71,48.18,44.22,46.21Z" />
    <line style="fill:#b2208c;stroke:#ab2292;stroke-miterlimit:10;stroke-width:0.121313465512016px" x1="37.53" x2="45.25" y1="69.92"
        y2="69.9" />
    <line style="fill:#b2208c;stroke:#ab2292;stroke-miterlimit:10;stroke-width:0.121313465512016px" x1="38.48" x2="44.55" y1="73.15"
        y2="70.17" />
    <line style="fill:#b2208c;stroke:#ab2292;stroke-miterlimit:10;stroke-width:0.121313465512016px" x1="36.73" x2="44.55" y1="71.53"
        y2="70.25" />
    <line style="fill:none;stroke:#ab2292;stroke-miterlimit:10;stroke-width:0.121313465512016px" x1="57.25" x2="50.52" y1="70.89"
        y2="71.3" />
    <line style="fill:none;stroke:#ab2292;stroke-miterlimit:10;stroke-width:0.121313465512016px" x1="56.38" x2="50.56" y1="72.37"
        y2="71.1" />
    <line style="fill:none;stroke:#ab2292;stroke-miterlimit:10;stroke-width:0.121313465512016px" x1="56.46" x2="51.33" y1="73.57"
        y2="71.07" />
    <path
        style="fill:#e6e6e6"
        d="M54.81,43.81c-.42-.7-4.86-2.33-11.64-1.11a2.41,2.41,0,0,0-1.14.81s-1.36,2.05-.42.38c-1.08,1.8-1.27,2.31-.41.38-.86,1.93-.87,1.9.3,0-1.16,1.94-.28.85.84-.11-.66.87.77-.07,1.25-.1,2.85-.18,7.54,0,10,2.46l1.34-1.07C55.58,45,55.19,44.45,54.81,43.81Z" />
    <circle style="fill:#fff" cx="57.94" cy="48.78" r="5.27" />
    <ellipse style="fill:#e6e6e6" cx="58" cy="48.81" rx="3.37" ry="3.06" />
    <path
        style="fill:#e6e6e6"
        d="M51.63,79.65l-.35-8.41a1.44,1.44,0,0,0-1.47-1.33H44.4a1.43,1.43,0,0,0-1.47,1.49l.83,10a1.41,1.41,0,0,0,1.41,1.27l5.19.17a1.42,1.42,0,0,0,1.52-1.56l-.25-1.68h0" />
    <ellipse style="fill:#868083" cx="44.99" cy="70.25" rx="0.43" ry="0.25" />
    <path style="fill:none" d="M49.25,71.93a.21.21,0,1,1,.42,0h.17c0-.61-.76-.61-.76,0Z" />
    
    <g style="mask:url(#mask-4)">
        <path style="fill:url(#radial-gradient-4)"
            d="M49.25,71.93a.21.21,0,1,0,.21-.25A.23.23,0,0,0,49.25,71.93Z" />
    </g>
    <rect style="fill:#868083" height="2.8" transform="translate(105.8 147.85) rotate(177.65)" width="0.27"
        x="51.25" y="73.61" />
    <path
        style="fill:#b2208c"
        d="M51.54,78.06s-2-1.75-2.31-.56a6.33,6.33,0,0,0,.05,2.58s1.91.7,2.4-.18a2,2,0,0,0-.14-1.84h0" />
    <path
        style="fill:#b2208c"
        d="M44.39,76.36s-1.8-1.61-2-.52a6.1,6.1,0,0,0,0,2.37s1.7.65,2.13-.16a1.88,1.88,0,0,0-.13-1.69h0" />
    <path style="fill:#b2208c" d="M49.47,77.93l-.08.5s-.34-.67-.77-.67S48.71,77.3,49.47,77.93Z" />
    <path style="fill:#b2208c" d="M44.16,76.66l-.13.41s.57-.33.94-.13S45.09,76.55,44.16,76.66Z" />
    <path style="fill:#b2208c" d="M44.16,77.22l-.13.42s.57-.34.94-.13S45.09,77.12,44.16,77.22Z" />
    <path style="fill:#b2208c" d="M44.13,77.82l-.13.42s.57-.34,1-.13S45.06,77.72,44.13,77.82Z" />
    <path style="fill:#b2208c" d="M49.47,78.65l-.08.43s-.34-.57-.77-.57S48.71,78.11,49.47,78.65Z" />
    <path style="fill:#b2208c" d="M49.42,79.19l-.09.43s-.34-.57-.76-.57S48.65,78.65,49.42,79.19Z" />

    <path style="fill:#fff"
        d="M9.18,152.17,3.9,133.94v18.23H0V125.82H4.45l5.28,18.05V125.82h3.9v26.35Z" />
    <path style="fill:#fff"
        d="M15.87,125.82H26.15v3.49h-6v7.58h5.29v3.49H20.12v8.31h6v3.5H15.87Z" />
    <path
        style="fill:#fff"
        d="M40.68,133.63l-2.93,18.56H32.4l-4-26.37h4.53l2.24,20.72h.18l3.19-20.72h4.28L46,146.54h.18l2.23-20.72h4.52l-4,26.37H43.58Z" />
    <path
        style="fill:#fff"
        d="M65.08,144.44a8.9,8.9,0,0,0,.39,3.8,1.72,1.72,0,0,0,1.65,1c1.36.05,2-.88,2-2.81a6,6,0,0,0-.47-2.51A6.75,6.75,0,0,0,67.42,142a19.18,19.18,0,0,0-1.83-1.72A18.48,18.48,0,0,1,62,136.43a9,9,0,0,1-1.13-4.84A6.72,6.72,0,0,1,62.32,127q1.47-1.63,4.93-1.64t4.74,2q1.38,2,.89,5.78l-4,.26a10.5,10.5,0,0,0-.26-3.64A1.58,1.58,0,0,0,67,128.52a1.71,1.71,0,0,0-1.59.73,4,4,0,0,0-.45,2.08,5,5,0,0,0,.76,2.95,16,16,0,0,0,2.35,2.5,6.39,6.39,0,0,1,.48.44,31.32,31.32,0,0,1,2.58,2.54,8.45,8.45,0,0,1,1.6,2.55,9.11,9.11,0,0,1,.54,3.35q0,3.74-1.51,5.31c-1,1.06-2.64,1.58-4.89,1.58s-3.81-.71-4.75-2-1.27-3.32-1-6.12Z" />
    <path
        style="fill:#fff"
        d="M76.17,148.29a25.35,25.35,0,0,1-.55-5.94v-7a22.69,22.69,0,0,1,.6-5.86,5.53,5.53,0,0,1,2-3.17,7.07,7.07,0,0,1,4-1q3.18,0,4.61,1.69t1.44,5.55c0,.46-.05,1.27-.13,2.45l-3.94.22a29.2,29.2,0,0,0-.14-4,5.07,5.07,0,0,0-.57-2,1.41,1.41,0,0,0-1.24-.63,1.47,1.47,0,0,0-1.28.61,4.29,4.29,0,0,0-.65,1.89,28.71,28.71,0,0,0-.18,3.68V144a13.6,13.6,0,0,0,.42,4.08,1.63,1.63,0,0,0,2.8.61A4.16,4.16,0,0,0,84,146.8a35,35,0,0,0,.22-3.94l3.94.22c0,.36,0,.87,0,1.55a14.43,14.43,0,0,1-.6,4.61,4.28,4.28,0,0,1-2,2.52,7.46,7.46,0,0,1-3.73.79,6.27,6.27,0,0,1-3.79-1A5.54,5.54,0,0,1,76.17,148.29Z" />
    <path style="fill:#fff"
        d="M99.17,136.89V125.82h4.25v26.37H99.17V140.38H94.78v11.81H90.53V125.82h4.25v11.07Z" />
    <path
        style="fill:#fff"
        d="M108.13,151.43a5.93,5.93,0,0,1-1.91-3.23,24.09,24.09,0,0,1-.56-5.85v-7a22.62,22.62,0,0,1,.61-5.86,5.57,5.57,0,0,1,2-3.17,7.4,7.4,0,0,1,4.13-1,7.26,7.26,0,0,1,4.11,1,5.44,5.44,0,0,1,2,3.17,22.69,22.69,0,0,1,.6,5.86v7a24.17,24.17,0,0,1-.55,5.85,6,6,0,0,1-1.9,3.23,8.78,8.78,0,0,1-8.58,0Zm6-3.33a11.33,11.33,0,0,0,.51-4.08v-9.25a28.71,28.71,0,0,0-.18-3.68,4.59,4.59,0,0,0-.63-1.89,1.89,1.89,0,0,0-2.78,0,4.44,4.44,0,0,0-.64,1.89,28.71,28.71,0,0,0-.18,3.68V144a11.33,11.33,0,0,0,.51,4.08,1.81,1.81,0,0,0,3.39,0Z" />
    <path
        style="fill:#fff"
        d="M123.87,151.43A6,6,0,0,1,122,148.2a24.17,24.17,0,0,1-.55-5.85v-7a22.69,22.69,0,0,1,.6-5.86,5.53,5.53,0,0,1,2-3.17,7.34,7.34,0,0,1,4.12-1,7.26,7.26,0,0,1,4.11,1,5.44,5.44,0,0,1,2,3.17,22.69,22.69,0,0,1,.6,5.86v7a24.17,24.17,0,0,1-.55,5.85,6,6,0,0,1-1.9,3.23,8.78,8.78,0,0,1-8.58,0Zm6-3.33a11.33,11.33,0,0,0,.51-4.08v-9.25a28.71,28.71,0,0,0-.18-3.68,4.59,4.59,0,0,0-.63-1.89,1.59,1.59,0,0,0-1.39-.61,1.57,1.57,0,0,0-1.38.61,4.29,4.29,0,0,0-.65,1.89,28.71,28.71,0,0,0-.18,3.68V144a11.33,11.33,0,0,0,.51,4.08,1.81,1.81,0,0,0,3.39,0Z" />
    <path style="fill:#fff" d="M141.39,148.69h6v3.5H137.15V125.82h4.24Z" />
</svg>