<?xml version="1.0" encoding="utf-8"?>
<svg style="enable-background:new 0 0 236.15 244.36;" id="Layer_1" version="1.1"
    viewBox="0 0 236.15 244.36" x="0px" xmlns="http://www.w3.org/2000/svg" y="0px"
    xml:space="preserve">
<circle style="fill:#FFFFFF;" cx="92.81" cy="78.15" r="8.45" />
    <ellipse style="fill:#E6E6E6;" cx="92.91" cy="78.19" rx="5.4" ry="4.91" />
    <ellipse style="fill:#868083;" cx="72.06" cy="112.52" rx="0.69" ry="0.4" />
    <g>
	<path style="fill:#FFFFFF;"
        d="M14.7,243.75l-8.45-29.19v29.19H0v-42.21h7.13l8.45,28.93v-28.93h6.24v42.21H14.7z" />
        <path style="fill:#FFFFFF;"
            d="M25.42,201.53h16.47v5.6h-9.66v12.14h8.48v5.6h-8.48v13.31h9.66v5.6H25.42V201.53z" />
        <path style="fill:#FFFFFF;" d="M65.16,214.05l-4.68,29.72H51.9l-6.42-42.24h7.25l3.59,33.2h0.29l5.1-33.2h6.86l5.13,33.2h0.29
		l3.56-33.2h7.25l-6.42,42.24h-8.57L65.16,214.05z" />
        <path style="fill:#FFFFFF;" d="M104.25,231.37c-0.12,3.01,0.09,5.03,0.63,6.08s1.42,1.58,2.64,1.58c2.18,0.08,3.27-1.42,3.27-4.51
		c0-1.57-0.25-2.91-0.75-4.02c-0.5-1.11-1.18-2.12-2.03-3.03c-0.85-0.91-1.83-1.83-2.93-2.75c-2.65-2.24-4.58-4.3-5.79-6.19
		c-1.21-1.89-1.81-4.47-1.81-7.75c0-3.18,0.79-5.65,2.36-7.41c1.57-1.76,4.2-2.64,7.89-2.64c3.59,0,6.13,1.05,7.6,3.14
		c1.47,2.09,1.94,5.18,1.41,9.26l-6.36,0.41c0.14-2.65-0.01-4.6-0.43-5.83c-0.42-1.24-1.3-1.86-2.64-1.86
		c-1.22,0-2.07,0.39-2.55,1.18c-0.48,0.79-0.72,1.9-0.72,3.33c0,2,0.41,3.58,1.22,4.73c0.81,1.15,2.07,2.48,3.76,3.99
		c0.25,0.22,0.51,0.45,0.77,0.71c1.63,1.45,3.01,2.81,4.14,4.08c1.13,1.27,1.98,2.63,2.56,4.08s0.87,3.24,0.87,5.36
		c0,3.99-0.81,6.82-2.43,8.51c-1.62,1.69-4.23,2.53-7.82,2.53c-3.57-0.08-6.11-1.14-7.61-3.2c-1.5-2.05-2.04-5.32-1.61-9.79H104.25z
		" />
        <path style="fill:#FFFFFF;" d="M122.01,237.53c-0.59-2.36-0.88-5.53-0.88-9.51v-11.25c0-3.97,0.32-7.1,0.97-9.4
		c0.65-2.32,1.73-4.01,3.24-5.07c1.55-1.04,3.68-1.56,6.39-1.56c3.4,0,5.86,0.9,7.39,2.71c1.53,1.83,2.3,4.79,2.3,8.9
		c0,0.73-0.07,2.03-0.21,3.92l-6.3,0.35c0.04-2.73-0.04-4.85-0.24-6.36c-0.18-1.51-0.48-2.6-0.91-3.27c-0.45-0.67-1.11-1-1.97-1
		c-0.9,0-1.59,0.32-2.06,0.97c-0.47,0.63-0.82,1.64-1.03,3.03c-0.2,1.4-0.29,3.36-0.29,5.89v14.82c0,3.1,0.23,5.28,0.68,6.54
		c0.45,1.26,1.26,1.89,2.42,1.89c0.9,0,1.59-0.3,2.06-0.91c0.47-0.61,0.81-1.63,1-3.06c0.2-1.45,0.31-3.55,0.35-6.3l6.3,0.35
		c0.04,0.57,0.06,1.4,0.06,2.47c0,3.08-0.32,5.55-0.97,7.39c-0.63,1.87-1.69,3.21-3.18,4.04c-1.47,0.84-3.47,1.27-5.98,1.27
		c-2.59-0.02-4.61-0.57-6.07-1.65C123.62,241.61,122.6,239.89,122.01,237.53z" />
        <path style="fill:#FFFFFF;"
            d="M158.86,219.27v-17.73h6.8v42.24h-6.8v-18.91h-7.04v18.91h-6.8v-42.24h6.8v17.73H158.86z" />
        <path style="fill:#FFFFFF;" d="M173.2,242.57c-1.45-1.2-2.47-2.93-3.06-5.18c-0.59-2.26-0.88-5.38-0.88-9.37v-11.25
		c0-3.97,0.32-7.1,0.97-9.4c0.65-2.32,1.73-4.01,3.24-5.07c1.55-1.04,3.76-1.56,6.61-1.56s5.05,0.52,6.58,1.56
		c1.53,1.06,2.61,2.75,3.24,5.07c0.65,2.3,0.97,5.43,0.97,9.4v11.25c0,3.99-0.29,7.11-0.88,9.37s-1.61,3.99-3.05,5.18
		c-1.44,1.2-3.73,1.8-6.86,1.8C176.95,244.36,174.66,243.77,173.2,242.57z M182.78,237.24c0.55-1.26,0.82-3.44,0.82-6.54v-14.82
		c0-2.53-0.1-4.5-0.29-5.89c-0.22-1.39-0.55-2.41-1-3.03c-0.47-0.65-1.21-0.97-2.22-0.97s-1.75,0.32-2.22,0.97
		c-0.47,0.63-0.82,1.64-1.03,3.03c-0.2,1.4-0.29,3.36-0.29,5.89v14.82c0,3.1,0.27,5.28,0.82,6.54c0.55,1.26,1.45,1.89,2.71,1.89
		C181.32,239.12,182.23,238.49,182.78,237.24z" />
        <path style="fill:#FFFFFF;" d="M198.42,242.57c-1.45-1.2-2.47-2.93-3.06-5.18c-0.59-2.26-0.88-5.38-0.88-9.37v-11.25
		c0-3.97,0.32-7.1,0.97-9.4c0.65-2.32,1.73-4.01,3.24-5.07c1.55-1.04,3.76-1.56,6.61-1.56s5.05,0.52,6.58,1.56
		c1.53,1.06,2.61,2.75,3.24,5.07c0.65,2.3,0.97,5.43,0.97,9.4v11.25c0,3.99-0.29,7.11-0.88,9.37s-1.61,3.99-3.05,5.18
		c-1.44,1.2-3.73,1.8-6.86,1.8C202.16,244.36,199.87,243.77,198.42,242.57z M207.99,237.24c0.55-1.26,0.82-3.44,0.82-6.54v-14.82
		c0-2.53-0.1-4.5-0.29-5.89c-0.22-1.39-0.55-2.41-1-3.03c-0.47-0.65-1.21-0.97-2.22-0.97s-1.75,0.32-2.22,0.97
		c-0.47,0.63-0.82,1.64-1.03,3.03c-0.2,1.4-0.29,3.36-0.29,5.89v14.82c0,3.1,0.27,5.28,0.82,6.54c0.55,1.26,1.45,1.89,2.71,1.89
		C206.54,239.12,207.44,238.49,207.99,237.24z" />
        <path style="fill:#FFFFFF;" d="M226.49,238.18h9.66v5.6h-16.47v-42.24h6.8V238.18z" />
</g>
    <line style="fill:#B2208C;stroke:#AB2292;stroke-width:0.1943;stroke-miterlimit:10;" x1="60.12"
        x2="72.49" y1="112" y2="111.97" />
    <line style="fill:#B2208C;stroke:#AB2292;stroke-width:0.1943;stroke-miterlimit:10;" x1="61.64"
        x2="71.37" y1="117.18" y2="112.39" />
    <line style="fill:#B2208C;stroke:#AB2292;stroke-width:0.1943;stroke-miterlimit:10;" x1="58.84"
        x2="71.36" y1="114.57" y2="112.53" />
    <line style="fill:none;stroke:#AB2292;stroke-width:0.1943;stroke-miterlimit:10;" x1="91.71"
        x2="80.93" y1="113.55" y2="114.21" />
    <line style="fill:none;stroke:#AB2292;stroke-width:0.1943;stroke-miterlimit:10;" x1="90.32"
        x2="80.99" y1="115.93" y2="113.89" />
    <line style="fill:none;stroke:#AB2292;stroke-width:0.1943;stroke-miterlimit:10;" x1="90.44"
        x2="82.22" y1="117.85" y2="113.84" />
    <path style="fill:#FFFFFF;stroke:#000000;stroke-width:0.0139;stroke-miterlimit:10;"
        d="M22.37,215.46" />
    <path style="fill:#B2208C;" d="M143.61,190.14c0,0,23.87-13.98,35.49-41.64c28.47-46.21-35.99-90.56-31.36-108.25
	c4.63-17.69,33.87-12.72,47.61-8.14C174.17-11.43,105.63-4.54,89.21,16.66c-14.92,19.26-4.85,72.73,52.7,81.98
	c20.24,0.64,24.11,72.69-2.5,94.52L143.61,190.14z" />
    <path style="fill:#B2208C;" d="M92.82,179.35c0,0-25.15-17.06-12.19-45.33c0,0-12.96,0.49-17.15,15.8
	c-0.98,8.94,20.57,29.53,20.57,29.53s-2.72,0.82-5.49,2.11c-5.56,2.6-5.66,9.1,0.61,9.1c1.1,0,4.39,0,4.39,0
	S78.67,182.77,92.82,179.35z" />
    <path style="fill:#B2208C;" d="M115.8,105.3c0,0-7.21-10.24-19.21,7.05c-5.35,7.7-17.16,16.47-20.62,14.86
	c-0.05-0.02,0.24,0.9,0.29,0.91c3.76,0.23,29.26,0.39,39.37-10.07C120.95,112.53,115.8,105.3,115.8,105.3z" />
    <path style="fill:#B2208C;" d="M74.29,122.37c-1.02,0.56-11.27-13.28-14.9-27.23c-0.28-1.07-0.52-2.15-0.71-3.22
	c-2.59-10.19,9.01-21.78,10.09-22.23c1.09-0.45,2.27-0.85,3.56-1.19c1.29-0.34,7.73-0.61,9.23-0.82c0,0,2.26-9.69,4.06-6.69
	c0.95,1.58,3.63,3.66,4.29,7.71C100.38,79.73,117.83,98.32,74.29,122.37z" />
    <path style="fill:#B2208C;"
        d="M72.77,127.01c0,0-4.06-2.37-4.71-6.06C68.05,120.96,66.75,127.93,72.77,127.01z" />
    <path style="fill:#B2208C;"
        d="M70.84,74.02c0,0,10.72,0.98-3.2-11.67C67.64,62.35,60.4,77.18,70.84,74.02z" />
    <path style="fill:#E6E6E6;" d="M87.8,70.18c-0.67-1.13-5.08-3.84-15.94-1.89c-5.91,1.15-11.26,5.93-2.8,4.18
	c4.48-0.93,12.83-2.01,16.78,1.99l2.15-1.71C89.03,72.15,88.41,71.21,87.8,70.18z" />
    <path style="fill:#E6E6E6;" d="M82.7,127.59l-0.55-13.47c-0.05-1.19-1.09-2.13-2.36-2.13h-8.66c-1.38,0-2.46,1.1-2.36,2.38
	l1.32,16.1c0.09,1.12,1.07,2,2.27,2.04l8.31,0.28c1.47,0.05,2.62-1.15,2.43-2.51L82.7,127.59L82.7,127.59L82.7,127.59L82.7,127.59" />
    <path style="fill:#B2208C;" d="M82.56,125.04c0,0-3.25-2.8-3.71-0.9c-0.45,1.91,0.08,4.13,0.08,4.13s3.07,1.12,3.84-0.28
	C83.55,126.58,82.56,125.04,82.56,125.04L82.56,125.04L82.56,125.04" />
    <path style="fill:#B2208C;" d="M71.11,122.32c0,0-2.89-2.58-3.29-0.83c-0.4,1.75,0.08,3.79,0.08,3.79s2.72,1.04,3.4-0.25
	S71.11,122.32,71.11,122.32L71.11,122.32L71.11,122.32" />
    <path style="fill:#B2208C;"
        d="M79.25,124.83l-0.14,0.8c0,0-0.55-1.07-1.23-1.07S78.02,123.81,79.25,124.83z" />
    <path style="fill:#B2208C;"
        d="M70.73,122.79l-0.21,0.66c0,0,0.92-0.53,1.52-0.21S72.23,122.62,70.73,122.79z" />
    <path style="fill:#B2208C;"
        d="M70.73,123.7l-0.21,0.66c0,0,0.92-0.53,1.52-0.21S72.23,123.53,70.73,123.7z" />
    <path style="fill:#B2208C;"
        d="M70.69,124.66l-0.21,0.66c0,0,0.92-0.53,1.52-0.21S72.18,124.49,70.69,124.66z" />
    <path style="fill:#B2208C;"
        d="M79.25,125.99l-0.14,0.68c0,0-0.55-0.91-1.23-0.91C77.2,125.76,78.02,125.12,79.25,125.99z" />
    <path style="fill:#B2208C;"
        d="M79.16,126.85l-0.14,0.68c0,0-0.55-0.91-1.23-0.91C77.11,126.62,77.93,125.99,79.16,126.85z" />
    <path style="fill:#B2208C;" d="M113.93,124.77c-1.2,0.15-2.4,0.34-3.6,0.59c-1.14,0.23-2.28,0.51-3.42,0.85
	c-12.98,4.88-18.46,17.95-18.8,18.85c-0.32,0.85-0.61,1.72-0.87,2.61c-2.87,9.81-1.89,22.25,13.46,32.72c0,0-10.87-0.48-14.61,5.08
	c-0.24,0.48-1.66,2.75-0.3,4.83c0.86,1.97,4.26,3.74,14.42,3.74c19.5,0,32.67,0,32.67,0s10.64-12.33,13.16-17.09
	C153.21,163.39,164.6,120.16,113.93,124.77z" />
    <path d="M78.62,115.22c0,0.97,1.22,0.97,1.22,0C79.84,114.25,78.62,114.25,78.62,115.22z
	 M79.23,115.62c-0.19,0-0.34-0.19-0.34-0.42s0.15-0.42,0.34-0.42c0.19,0,0.34,0.19,0.34,0.42S79.42,115.62,79.23,115.62z" />
    <radialGradient cx="79.2272" cy="115.2167" gradientUnits="userSpaceOnUse"
        r="0.6698">
	<stop style="stop-color:#3E3E3F" offset="0" />
        <stop style="stop-color:#312F30" offset="0.3249" />
        <stop style="stop-color:#100809" offset="0.9488" />
        <stop style="stop-color:#0D0406" offset="1" />
</radialGradient>
    <rect style="fill:#868083;" height="4.49"
        transform="matrix(-0.9992 0.0409 -0.0409 -0.9992 169.4719 236.8354)" width="0.43" x="82.1"
        y="117.91" />
</svg>
