<svg id="Layer_1" data-name="Layer 1" xmlns="http://www.w3.org/2000/svg" xmlns:xlink="http://www.w3.org/1999/xlink" viewBox="0 0 390 390"><defs><radialGradient id="radial-gradient" cx="-6.59" cy="2659.42" r="150.52" gradientTransform="translate(203.24 -210.2) scale(1.25 0.21)" gradientUnits="userSpaceOnUse"><stop offset="0"/><stop offset="1" stop-color="#424242"/></radialGradient><linearGradient id="linear-gradient" x1="195" y1="35.88" x2="195" y2="143.68" gradientUnits="userSpaceOnUse"><stop offset="0" stop-color="#ff2b2b"/><stop offset="1" stop-color="#9d1c1f"/></linearGradient><linearGradient id="linear-gradient-2" x1="260.89" y1="43.05" x2="260.89" y2="167.36" gradientUnits="userSpaceOnUse"><stop offset="0" stop-color="#e9e9e9"/><stop offset="1" stop-color="silver"/></linearGradient><linearGradient id="linear-gradient-3" x1="129.11" y1="43.05" x2="129.11" y2="167.36" xlink:href="#linear-gradient-2"/><linearGradient id="linear-gradient-4" x1="195" y1="202.01" x2="195" y2="392.68" gradientUnits="userSpaceOnUse"><stop offset="0" stop-color="#daaf3f"/><stop offset="1" stop-color="#cb9536"/></linearGradient><linearGradient id="linear-gradient-5" x1="195" y1="203.04" x2="195" y2="383.41" gradientUnits="userSpaceOnUse"><stop offset="0" stop-color="#fff13f"/><stop offset="1" stop-color="#cb9536"/></linearGradient><linearGradient id="linear-gradient-6" x1="194.71" y1="245.21" x2="194.71" y2="72.68" gradientUnits="userSpaceOnUse"><stop offset="0" stop-color="#fff7b9"/><stop offset="1" stop-color="#ffda14"/></linearGradient><linearGradient id="linear-gradient-7" x1="195" y1="278.11" x2="195" y2="158.74" gradientUnits="userSpaceOnUse"><stop offset="0" stop-color="#ffffa6"/><stop offset="1" stop-color="#cb9536"/></linearGradient><linearGradient id="linear-gradient-8" x1="195" y1="185.44" x2="195" y2="249.01" gradientTransform="translate(3.98 -3.45) rotate(1.02)" gradientUnits="userSpaceOnUse"><stop offset="0" stop-color="#ffec47"/><stop offset="1" stop-color="#ffda14"/></linearGradient><linearGradient id="linear-gradient-9" x1="194.99" y1="244.17" x2="194.99" y2="182.49" xlink:href="#linear-gradient-6"/></defs><title>medalha2</title><path d="M383.15,338.7c0,17.16-84.24,31.06-188.15,31.06S6.85,355.86,6.85,338.7,91.09,307.64,195,307.64,383.15,321.54,383.15,338.7Z" style="fill:url(#radial-gradient)"/><polygon points="195 20.24 112.61 20.24 112.61 112.64 195 146.1 277.39 112.64 277.39 20.24 195 20.24" style="fill:url(#linear-gradient)"/><polygon points="277.39 112.64 244.39 126.05 244.39 20.24 277.39 20.24 277.39 112.64" style="fill:url(#linear-gradient-2)"/><polygon points="112.61 112.64 145.61 126.05 145.61 20.24 112.61 20.24 112.61 112.64" style="fill:url(#linear-gradient-3)"/><path d="M195,124.52A96.48,96.48,0,1,0,291.48,221,96.47,96.47,0,0,0,195,124.52Z" style="fill:url(#linear-gradient-4)"/><path d="M195,129.73A91.27,91.27,0,1,0,286.27,221,91.27,91.27,0,0,0,195,129.73Z" style="fill:url(#linear-gradient-5)"/><path d="M195,129.73a91.31,91.31,0,0,0-84.47,125.89c45.52-1.19,131.8-17.53,175.16-44.92A91.28,91.28,0,0,0,195,129.73Z" style="fill:url(#linear-gradient-6)"/><path d="M256.31,221A61.31,61.31,0,1,1,195,159.69,61.3,61.3,0,0,1,256.31,221Z" style="fill:url(#linear-gradient-7)"/><circle cx="195" cy="221" r="51.73" transform="matrix(1, -0.02, 0.02, 1, -3.91, 3.52)" style="fill:url(#linear-gradient-8)"/><path d="M195,169.27a51.73,51.73,0,0,0-46.21,75c29.26-2.85,69.46-11.21,97.93-24A51.72,51.72,0,0,0,195,169.27Z" style="fill:url(#linear-gradient-9)"/></svg>