<svg id="Layer_1" data-name="Layer 1" xmlns="http://www.w3.org/2000/svg" viewBox="0 0 390 390"><title>metric-sucess-01</title><path d="M78.84,55.49A44.85,44.85,0,0,0,34,100.29V269.08l44.8,67.2,44.8-67.2V100.29A44.85,44.85,0,0,0,78.84,55.49ZM93.77,260l-14.93,22.4L63.91,260v-115H93.77ZM63.91,115.22V100.29a14.93,14.93,0,1,1,29.86,0v14.93Z" style="fill:#aaa"/><path d="M273,10.68H183.37a29.9,29.9,0,0,0-29.86,29.87V309.36a29.89,29.89,0,0,0,29.86,29.86H273a29.89,29.89,0,0,0,29.86-29.86V40.55A29.9,29.9,0,0,0,273,10.68ZM183.37,309.36v-44.8h44.81V234.69H183.37v-44.8h44.81V160H183.37v-44.8h44.81V85.35H183.37V40.55H273l0,268.81Z" style="fill:#aaa"/><polygon points="255.74 379.31 200.38 323.13 221.5 301.71 255.74 336.46 334.78 256.25 355.9 277.67 255.74 379.31" style="fill:#39b54a"/></svg>