<?xml version="1.0" encoding="utf-8"?><!-- Generator: Adobe Illustrator 23.1.0, SVG Export Plug-In . SVG Version: 6.00 Build 0)  -->
<svg style="enable-background:new 0 0 492.43 90.97;" id="Layer_1" version="1.1"
    viewBox="0 0 492.43 90.97" x="0px" xmlns="http://www.w3.org/2000/svg" y="0px"
    xml:space="preserve">
<g>
	<path style="fill:#FFFFFF;"
        d="M30.65,89.68L13.02,28.81v60.87H0V1.66h14.86l17.63,60.32V1.66h13.02v88.02H30.65z" />
    <path style="fill:#FFFFFF;"
        d="M53.01,1.66h34.33v11.67H67.2v25.31h17.69v11.67H67.2v27.76h20.15v11.67H53.01V1.66z" />
    <path style="fill:#FFFFFF;" d="M135.87,27.76l-9.77,61.98h-17.87L94.84,1.66h15.11l7.49,69.22h0.61l10.63-69.22h14.31l10.69,69.22
		h0.61l7.43-69.22h15.11l-13.39,88.08h-17.87L135.87,27.76z" />
    <path style="fill:#FFFFFF;" d="M217.38,63.88c-0.25,6.27,0.19,10.49,1.32,12.68c1.13,2.19,2.96,3.28,5.5,3.28
		c4.55,0.16,6.82-2.97,6.82-9.4c0-3.28-0.52-6.07-1.57-8.38c-1.04-2.31-2.46-4.42-4.24-6.33c-1.78-1.9-3.82-3.82-6.11-5.74
		c-5.53-4.67-9.55-8.97-12.07-12.9s-3.78-9.32-3.78-16.15c0-6.63,1.64-11.78,4.91-15.45c3.28-3.66,8.76-5.5,16.46-5.5
		c7.49,0,12.77,2.18,15.85,6.54c3.07,4.36,4.05,10.8,2.95,19.32l-13.27,0.86c0.29-5.53-0.01-9.58-0.89-12.16
		c-0.88-2.58-2.71-3.87-5.5-3.87c-2.54,0-4.31,0.82-5.31,2.46s-1.5,3.95-1.5,6.94c0,4.18,0.85,7.46,2.55,9.86
		c1.7,2.4,4.31,5.17,7.83,8.32c0.53,0.45,1.06,0.94,1.6,1.47c3.4,3.03,6.27,5.87,8.63,8.51c2.35,2.64,4.14,5.48,5.34,8.51
		c1.21,3.03,1.81,6.76,1.81,11.18c0,8.31-1.69,14.23-5.07,17.75c-3.38,3.52-8.81,5.28-16.31,5.28c-7.45-0.16-12.75-2.38-15.88-6.66
		c-3.13-4.28-4.25-11.09-3.35-20.42H217.38z" />
    <path style="fill:#FFFFFF;" d="M254.41,76.72c-1.23-4.91-1.84-11.53-1.84-19.84V33.41c0-8.27,0.67-14.8,2.03-19.59
		c1.35-4.83,3.6-8.35,6.76-10.56C264.59,1.09,269.03,0,274.68,0c7.08,0,12.22,1.88,15.42,5.65c3.19,3.81,4.79,9.99,4.79,18.55
		c0,1.52-0.14,4.24-0.43,8.17l-13.14,0.74c0.08-5.69-0.08-10.11-0.49-13.27c-0.37-3.15-1-5.43-1.9-6.82
		c-0.94-1.39-2.31-2.09-4.11-2.09c-1.88,0-3.32,0.68-4.3,2.03c-0.98,1.31-1.7,3.42-2.15,6.33c-0.41,2.91-0.61,7-0.61,12.28v30.9
		c0,6.47,0.47,11.02,1.41,13.64c0.94,2.62,2.62,3.93,5.04,3.93c1.88,0,3.32-0.63,4.3-1.9c0.98-1.27,1.68-3.4,2.09-6.39
		c0.41-3.03,0.66-7.41,0.74-13.14l13.14,0.74c0.08,1.19,0.12,2.91,0.12,5.16c0,6.43-0.68,11.57-2.03,15.42
		c-1.31,3.89-3.52,6.69-6.63,8.41c-3.07,1.76-7.23,2.64-12.47,2.64c-5.41-0.04-9.62-1.19-12.65-3.44
		C257.77,85.24,255.64,81.63,254.41,76.72z" />
    <path style="fill:#FFFFFF;"
        d="M331.25,38.64V1.66h14.19v88.08h-14.19V50.31h-14.68v39.43h-14.19V1.66h14.19v36.98H331.25z" />
    <path style="fill:#FFFFFF;" d="M361.17,87.22c-3.03-2.5-5.16-6.1-6.39-10.81s-1.84-11.22-1.84-19.53V33.41
		c0-8.27,0.67-14.8,2.03-19.59c1.35-4.83,3.6-8.35,6.76-10.56C364.95,1.09,369.55,0,375.51,0c5.96,0,10.53,1.09,13.73,3.26
		c3.19,2.21,5.45,5.73,6.76,10.56c1.35,4.79,2.03,11.32,2.03,19.59v23.46c0,8.31-0.61,14.82-1.84,19.53s-3.35,8.31-6.36,10.81
		c-3.01,2.5-7.78,3.75-14.31,3.75S364.2,89.72,361.17,87.22z M381.13,76.1c1.15-2.62,1.72-7.17,1.72-13.64v-30.9
		c0-5.28-0.2-9.38-0.61-12.28c-0.45-2.91-1.15-5.02-2.09-6.33c-0.98-1.35-2.53-2.03-4.64-2.03s-3.65,0.68-4.64,2.03
		c-0.98,1.31-1.7,3.42-2.15,6.33c-0.41,2.91-0.61,7-0.61,12.28v30.9c0,6.47,0.57,11.02,1.72,13.64c1.15,2.62,3.03,3.93,5.65,3.93
		C378.1,80.03,379.98,78.72,381.13,76.1z" />
    <path style="fill:#FFFFFF;" d="M413.74,87.22c-3.03-2.5-5.16-6.1-6.39-10.81s-1.84-11.22-1.84-19.53V33.41
		c0-8.27,0.67-14.8,2.03-19.59c1.35-4.83,3.6-8.35,6.76-10.56C417.53,1.09,422.13,0,428.09,0s10.53,1.09,13.73,3.26
		c3.19,2.21,5.45,5.73,6.76,10.56c1.35,4.79,2.03,11.32,2.03,19.59v23.46c0,8.31-0.61,14.82-1.84,19.53s-3.35,8.31-6.36,10.81
		c-3.01,2.5-7.78,3.75-14.31,3.75S416.77,89.72,413.74,87.22z M433.71,76.1c1.15-2.62,1.72-7.17,1.72-13.64v-30.9
		c0-5.28-0.2-9.38-0.61-12.28c-0.45-2.91-1.15-5.02-2.09-6.33c-0.98-1.35-2.53-2.03-4.64-2.03s-3.65,0.68-4.64,2.03
		c-0.98,1.31-1.7,3.42-2.15,6.33c-0.41,2.91-0.61,7-0.61,12.28v30.9c0,6.47,0.57,11.02,1.72,13.64c1.15,2.62,3.03,3.93,5.65,3.93
		S432.56,78.72,433.71,76.1z" />
    <path style="fill:#FFFFFF;" d="M472.28,78.07h20.15v11.67h-34.33V1.66h14.19V78.07z" />
</g>
    <g>
</g>
    <g>
</g>
    <g>
</g>
    <g>
</g>
    <g>
</g>
    <g>
</g>
</svg>
