<?xml version="1.0" encoding="utf-8"?>
<svg style="enable-background:new 0 0 31.12 29.49;" id="Layer_1" version="1.1"
    viewBox="0 0 31.12 29.49" x="0px" xmlns="http://www.w3.org/2000/svg" y="0px"
    xml:space="preserve">
<g>
	<path style="fill:#fbb03b;" d="M7.67,8.69H1.02C0.46,8.69,0,8.24,0,7.67V1.02C0,0.46,0.46,0,1.02,0h6.65
		c0.56,0,1.02,0.46,1.02,1.02v6.65C8.69,8.24,8.24,8.69,7.67,8.69z" />
    <path style="fill:#fbb03b;" d="M18.89,8.69h-6.65c-0.56,0-1.02-0.46-1.02-1.02V1.02c0-0.56,0.46-1.02,1.02-1.02h6.65
		c0.56,0,1.02,0.46,1.02,1.02v6.65C19.91,8.24,19.45,8.69,18.89,8.69z" />
    <path style="fill:#fbb03b;" d="M30.1,8.69h-6.65c-0.56,0-1.02-0.46-1.02-1.02V1.02c0-0.56,0.46-1.02,1.02-1.02h6.65
		c0.56,0,1.02,0.46,1.02,1.02v6.65C31.12,8.24,30.67,8.69,30.1,8.69z" />
    <path style="fill:#fbb03b;" d="M7.67,18.89H1.02C0.46,18.89,0,18.43,0,17.87v-6.65c0-0.56,0.46-1.02,1.02-1.02h6.65
		c0.56,0,1.02,0.46,1.02,1.02v6.65C8.69,18.43,8.24,18.89,7.67,18.89z" />
    <path style="fill:#fbb03b;" d="M18.89,18.89h-6.65c-0.56,0-1.02-0.46-1.02-1.02v-6.65c0-0.56,0.46-1.02,1.02-1.02h6.65
		c0.56,0,1.02,0.46,1.02,1.02v6.65C19.91,18.43,19.45,18.89,18.89,18.89z" />
    <path style="fill:#363636;" d="M30.1,18.89h-6.65c-0.56,0-1.02-0.46-1.02-1.02v-6.65c0-0.56,0.46-1.02,1.02-1.02h6.65
		c0.56,0,1.02,0.46,1.02,1.02v6.65C31.12,18.43,30.67,18.89,30.1,18.89z" />
    <path style="fill:#363636;" d="M7.67,29.49H1.02C0.46,29.49,0,29.03,0,28.47v-6.65c0-0.56,0.46-1.02,1.02-1.02h6.65
		c0.56,0,1.02,0.46,1.02,1.02v6.65C8.69,29.03,8.24,29.49,7.67,29.49z" />
    <path style="fill:#363636;" d="M18.89,29.49h-6.65c-0.56,0-1.02-0.46-1.02-1.02v-6.65c0-0.56,0.46-1.02,1.02-1.02h6.65
		c0.56,0,1.02,0.46,1.02,1.02v6.65C19.91,29.03,19.45,29.49,18.89,29.49z" />
    <path style="fill:#363636;" d="M30.1,29.49h-6.65c-0.56,0-1.02-0.46-1.02-1.02v-6.65c0-0.56,0.46-1.02,1.02-1.02h6.65
		c0.56,0,1.02,0.46,1.02,1.02v6.65C31.12,29.03,30.67,29.49,30.1,29.49z" />
</g>
</svg>
