<?xml version="1.0" encoding="utf-8"?><!-- Generator: Adobe Illustrator 23.1.0, SVG Export Plug-In . SVG Version: 6.00 Build 0)  -->
<svg style="enable-background:new 0 0 137.04 194.03;" id="Layer_1" version="1.1"
    viewBox="0 0 137.04 194.03" x="0px" xmlns="http://www.w3.org/2000/svg" y="0px"
    xml:space="preserve">
<g>
	<path style="fill:#B2208C;" d="M85.31,190.14c0,0,23.87-13.98,35.49-41.64c28.47-46.21-35.99-90.56-31.36-108.25
		s33.87-12.72,47.61-8.14C115.87-11.43,47.33-4.54,30.91,16.66c-14.92,19.26-4.85,72.73,52.7,81.98
		c20.24,0.64,24.11,72.69-2.5,94.52L85.31,190.14z" />
    <path style="fill:#B2208C;" d="M34.52,179.35c0,0-25.15-17.06-12.19-45.33c0,0-12.96,0.49-17.15,15.8
		c-0.98,8.94,20.57,29.53,20.57,29.53s-2.72,0.82-5.49,2.11c-5.56,2.6-5.66,9.1,0.61,9.1c1.1,0,4.39,0,4.39,0
		S20.37,182.77,34.52,179.35z" />
    <path style="fill:#B2208C;" d="M57.5,105.3c0,0-7.21-10.24-19.21,7.05c-5.35,7.7-17.16,16.47-20.62,14.86
		c-0.05-0.02,0.24,0.9,0.29,0.91c3.76,0.23,29.26,0.39,39.37-10.07C62.65,112.53,57.5,105.3,57.5,105.3z" />
    <path style="fill:#B2208C;" d="M15.99,122.37c-1.02,0.56-11.27-13.28-14.9-27.23C0.81,94.07,0.57,93,0.38,91.93
		c-2.59-10.19,9.01-21.78,10.09-22.23c1.09-0.45,2.27-0.85,3.56-1.19c1.29-0.34,7.73-0.61,9.23-0.82c0,0,2.26-9.69,4.06-6.69
		c0.95,1.58,3.63,3.66,4.29,7.71C42.08,79.73,59.53,98.32,15.99,122.37z" />
    <path style="fill:#B2208C;"
        d="M14.47,127.01c0,0-4.06-2.37-4.71-6.06C9.75,120.96,8.45,127.93,14.47,127.01z" />
    <path style="fill:#B2208C;"
        d="M12.54,74.02c0,0,10.72,0.98-3.2-11.67C9.34,62.35,2.1,77.18,12.54,74.02z" />
    <line style="fill:#B2208C;stroke:#AB2292;stroke-width:0.1943;stroke-miterlimit:10;" x1="1.82"
        x2="14.19" y1="112" y2="111.97" />

    <line style="fill:#B2208C;stroke:#AB2292;stroke-width:0.1943;stroke-miterlimit:10;" x1="3.34"
        x2="13.07" y1="117.18" y2="112.39" />

    <line style="fill:#B2208C;stroke:#AB2292;stroke-width:0.1943;stroke-miterlimit:10;" x1="0.54"
        x2="13.06" y1="114.57" y2="112.53" />

    <line style="fill:none;stroke:#AB2292;stroke-width:0.1943;stroke-miterlimit:10;" x1="33.41"
        x2="22.63" y1="113.55" y2="114.21" />

    <line style="fill:none;stroke:#AB2292;stroke-width:0.1943;stroke-miterlimit:10;" x1="32.02"
        x2="22.69" y1="115.93" y2="113.89" />

    <line style="fill:none;stroke:#AB2292;stroke-width:0.1943;stroke-miterlimit:10;" x1="32.14"
        x2="23.92" y1="117.85" y2="113.84" />
    <path style="fill:#E6E6E6;" d="M29.5,70.18c-0.67-1.13-5.08-3.84-15.94-1.89c-5.91,1.15-11.26,5.93-2.8,4.18
		c4.48-0.93,12.83-2.01,16.78,1.99l2.15-1.71C30.73,72.15,30.11,71.21,29.5,70.18z" />
    <circle style="fill:#FFFFFF;" cx="34.51" cy="78.15" r="8.45" />
    <ellipse style="fill:#E6E6E6;" cx="34.61" cy="78.19" rx="5.4" ry="4.91" />
    <path style="fill:#E6E6E6;" d="M24.4,127.59l-0.55-13.47c-0.05-1.19-1.09-2.13-2.36-2.13h-8.66c-1.38,0-2.46,1.1-2.36,2.38
		l1.32,16.1c0.09,1.12,1.07,2,2.27,2.04l8.31,0.28c1.47,0.05,2.62-1.15,2.43-2.51L24.4,127.59L24.4,127.59L24.4,127.59L24.4,127.59" />
    <ellipse style="fill:#868083;" cx="13.76" cy="112.52" rx="0.69" ry="0.4" />

    <rect style="fill:#868083;" height="4.49"
        transform="matrix(-0.9992 0.0409 -0.0409 -0.9992 52.9207 239.2221)" width="0.43" x="23.8"
        y="117.91" />
    <path style="fill:#B2208C;" d="M24.26,125.04c0,0-3.25-2.8-3.71-0.9c-0.45,1.91,0.08,4.13,0.08,4.13s3.07,1.12,3.84-0.28
		C25.25,126.58,24.26,125.04,24.26,125.04L24.26,125.04L24.26,125.04" />
    <path style="fill:#B2208C;" d="M12.81,122.32c0,0-2.89-2.58-3.29-0.83c-0.4,1.75,0.08,3.79,0.08,3.79s2.72,1.04,3.4-0.25
		C13.69,123.74,12.81,122.32,12.81,122.32L12.81,122.32L12.81,122.32" />
    <path style="fill:#B2208C;"
        d="M20.95,124.83l-0.14,0.8c0,0-0.55-1.07-1.23-1.07C18.9,124.56,19.72,123.81,20.95,124.83z" />
    <path style="fill:#B2208C;"
        d="M12.43,122.79l-0.21,0.66c0,0,0.92-0.53,1.52-0.21S13.93,122.62,12.43,122.79z" />
    <path style="fill:#B2208C;"
        d="M12.43,123.7l-0.21,0.66c0,0,0.92-0.53,1.52-0.21S13.93,123.53,12.43,123.7z" />
    <path style="fill:#B2208C;"
        d="M12.39,124.66l-0.21,0.66c0,0,0.92-0.53,1.52-0.21S13.88,124.49,12.39,124.66z" />
    <path style="fill:#B2208C;"
        d="M20.95,125.99l-0.14,0.68c0,0-0.55-0.91-1.23-0.91C18.9,125.76,19.72,125.12,20.95,125.99z" />
    <path style="fill:#B2208C;"
        d="M20.86,126.85l-0.14,0.68c0,0-0.55-0.91-1.23-0.91S19.63,125.99,20.86,126.85z" />
    <path style="fill:#B2208C;" d="M55.63,124.77c-1.2,0.15-2.4,0.34-3.6,0.59c-1.14,0.23-2.28,0.51-3.42,0.85
		c-12.98,4.88-18.46,17.95-18.8,18.85c-0.32,0.85-0.61,1.72-0.87,2.61c-2.87,9.81-1.89,22.25,13.46,32.72c0,0-10.87-0.48-14.61,5.08
		c-0.24,0.48-1.66,2.75-0.3,4.83c0.86,1.97,4.26,3.74,14.42,3.74c19.5,0,32.67,0,32.67,0s10.64-12.33,13.16-17.09
		C94.91,163.39,106.3,120.16,55.63,124.77z" />
    <radialGradient cx="20.9271" cy="115.2167" gradientUnits="userSpaceOnUse" id="SVGID_1_"
        r="0.6698">
		<stop style="stop-color:#3E3E3F" offset="0" />
        <stop style="stop-color:#312F30" offset="0.3249" />
        <stop style="stop-color:#100809" offset="0.9488" />
        <stop style="stop-color:#0D0406" offset="1" />
	</radialGradient>
    <path style="fill:url(#SVGID_1_);" d="M20.32,115.22c0,0.97,1.22,0.97,1.22,0C21.54,114.25,20.32,114.25,20.32,115.22z
		 M20.93,115.62c-0.19,0-0.34-0.19-0.34-0.42s0.15-0.42,0.34-0.42c0.19,0,0.34,0.19,0.34,0.42S21.12,115.62,20.93,115.62z" />
</g>
    <g>
</g>
    <g>
</g>
    <g>
</g>
    <g>
</g>
    <g>
</g>
    <g>
</g>
</svg>
