<?xml version="1.0" encoding="utf-8"?>
<svg style="enable-background:new 0 0 47.8 47.8;" id="Layer_1" version="1.1" viewBox="0 0 47.8 47.8"
    x="0px" xmlns="http://www.w3.org/2000/svg" y="0px" xml:space="preserve">
<g>
	<path style="fill:#AAAAAA;" d="M16.5,25.4c-5,0-9,4-9,9s4,9,9,9s9-4,9-9C25.4,29.4,21.4,25.4,16.5,25.4z M13.8,38.9v-9l6.7,4.5
		L13.8,38.9z" />
    <path style="fill:#AAAAAA;" d="M29.9,20.9H3c-1.6,0-3,1.3-3,3v20.9c0,1.7,1.3,3,3,3h26.9c1.7,0,3-1.3,3-3V23.9
		C32.9,22.2,31.6,20.9,29.9,20.9z M3,44.8V23.9h26.9v20.9H3z" />
</g>
    <rect style="fill:#363636;fill-opacity:0;" height="47.8" width="47.8" y="0" />
</svg>
