<?xml version="1.0" encoding="utf-8"?>
<svg style="enable-background:new 0 0 47.8 47.8;" id="Layer_1" version="1.1" viewBox="0 0 47.8 47.8"
    x="0px" xmlns="http://www.w3.org/2000/svg" y="0px" xml:space="preserve">
<rect style="fill:#363636;fill-opacity:0;" height="47.8" width="47.8" y="0" />
    <g>
	<path style="fill:#AAAAAA;" d="M23.9,17.2h-6.3c-0.6-1.7-2.3-3-4.2-3c-1.9,0-3.6,1.3-4.2,3H3c-0.2,0-0.4,0-0.6,0.1
		c-0.6,0.1-1.1,0.4-1.5,0.8c-0.3,0.3-0.5,0.6-0.6,1C0.1,19.4,0,19.7,0,20.2v24.7c0,0.4,0.1,0.8,0.2,1.2s0.4,0.7,0.6,1
		c0.4,0.4,0.9,0.7,1.5,0.8c0.2,0,0.4,0,0.6,0h20.9c1.7,0,3-1.3,3-3V20.2C26.9,18.5,25.6,17.2,23.9,17.2z M13.4,16.8
		c0.6,0,1.1,0.5,1.1,1.1c0,0.6-0.5,1.1-1.1,1.1s-1.1-0.5-1.1-1.1C12.3,17.3,12.8,16.8,13.4,16.8z M23.9,44.8H3V20.2h20.9L23.9,44.8
		L23.9,44.8z" />
        <rect style="fill:#AAAAAA;" height="3" width="10.5" x="6" y="39.2" />
        <rect style="fill:#AAAAAA;" height="3" width="15" x="6" y="33.7" />
        <rect style="fill:#AAAAAA;" height="3" width="15" x="6" y="28.3" />
        <rect style="fill:#AAAAAA;" height="3" width="15" x="6" y="22.8" />
</g>
</svg>
