<?xml version="1.0" encoding="utf-8"?><!-- Generator: Adobe Illustrator 23.1.0, SVG Export Plug-In . SVG Version: 6.00 Build 0)  -->
<svg style="enable-background:new 0 0 47.8 47.8;" id="Layer_1" version="1.1" viewBox="0 0 47.8 47.8"
    x="0px" xmlns="http://www.w3.org/2000/svg" y="0px" xml:space="preserve">
<path style="fill:#AAAAAA;" d="M14.4,19C6.4,19,0,25.5,0,33.4s6.4,14.4,14.4,14.4c8,0,14.4-6.5,14.4-14.4S22.4,19,14.4,19z
	 M24.4,27.7h-4.3c-0.5-1.8-1.1-3.5-2-5.1C20.8,23.5,23,25.3,24.4,27.7z M14.4,22c1.2,1.7,2.1,3.6,2.7,5.7h-5.5
	C12.3,25.6,13.2,23.7,14.4,22z M3.3,36.3c-0.2-0.9-0.4-1.9-0.4-2.9s0.1-2,0.4-2.9h4.9c-0.1,1-0.2,1.9-0.2,2.9c0,1,0.1,1.9,0.2,2.9
	H3.3z M4.4,39.2h4.3c0.5,1.8,1.1,3.5,2,5.1C8,43.4,5.8,41.6,4.4,39.2z M8.7,27.7H4.4c1.4-2.4,3.6-4.2,6.2-5.1
	C9.8,24.2,9.2,25.9,8.7,27.7z M14.4,44.9c-1.2-1.7-2.1-3.6-2.8-5.7h5.5C16.5,41.3,15.6,43.2,14.4,44.9z M17.8,36.3H11
	c-0.1-1-0.2-1.9-0.2-2.9c0-1,0.1-1.9,0.2-2.9h6.7c0.1,0.9,0.2,1.9,0.2,2.9C18,34.4,17.9,35.4,17.8,36.3z M18.1,44.3
	c0.9-1.6,1.5-3.3,2-5.1h4.3C23,41.6,20.8,43.4,18.1,44.3z M20.7,36.3c0.1-1,0.2-1.9,0.2-2.9c0-1-0.1-1.9-0.2-2.9h4.9
	c0.2,0.9,0.4,1.9,0.4,2.9s-0.1,2-0.4,2.9H20.7z" />
    <rect style="fill:#363636;fill-opacity:0;" height="47.8" width="47.8" y="0" />
</svg>
